<svg xmlns="http://www.w3.org/2000/svg"
 viewBox="-32.885643 -29.098473 34.271282 30.484116"
>
<polyline
 fill="none" stroke="green" stroke-width="0.25%"
 points="
  0.000000,  0.000000
 -1.000000, -0.000000
 -1.000000, -0.000000
 -1.500000, -0.866026
 -1.500000, -0.866026
 -1.000000, -1.732051
 -1.000000, -1.732051
 -1.500000, -2.598076
 -1.500000, -2.598076
 -2.500000, -2.598076
 -2.500000, -2.598076
 -3.000000, -1.732051
 -3.000000, -1.732051
 -2.500000, -0.866025
 -2.500000, -0.866025
 -3.000000, -0.000000
 -3.000000, -0.000000
 -4.000000, -0.000000
 -4.000000, -0.000000
 -4.500000, -0.866026
 -4.500000, -0.866026
 -5.500000, -0.866026
 -5.500000, -0.866026
 -6.000000, -0.000000
 -6.000000, -0.000000
 -7.000000, -0.000000
 -7.000000, -0.000000
 -7.500000, -0.866026
 -7.500000, -0.866026
 -7.000000, -1.732051
 -7.000000, -1.732051
 -6.000000, -1.732051
 -6.000000, -1.732051
 -5.500000, -2.598076
 -5.500000, -2.598076
 -6.000000, -3.464102
 -6.000000, -3.464102
 -5.500000, -4.330127
 -5.500000, -4.330127
 -4.500000, -4.330127
 -4.500000, -4.330127
 -4.000000, -3.464102
 -4.000000, -3.464102
 -3.000000, -3.464102
 -3.000000, -3.464102
 -2.500000, -4.330127
 -2.500000, -4.330127
 -3.000000, -5.196152
 -3.000000, -5.196152
 -4.000000, -5.196152
 -4.000000, -5.196152
 -4.500000, -6.062178
 -4.500000, -6.062178
 -4.000000, -6.928203
 -4.000000, -6.928203
 -4.500000, -7.794229
 -4.500000, -7.794229
 -5.500000, -7.794229
 -5.500000, -7.794229
 -6.000000, -6.928203
 -6.000000, -6.928203
 -7.000000, -6.928203
 -7.000000, -6.928203
 -7.500000, -7.794229
 -7.500000, -7.794229
 -7.000000, -8.660254
 -7.000000, -8.660254
 -6.000000, -8.660254
 -6.000000, -8.660254
 -5.500000, -9.526279
 -5.500000, -9.526279
 -6.000000,-10.392305
 -6.000000,-10.392305
 -7.000000,-10.392305
 -7.000000,-10.392305
 -7.500000,-11.258331
 -7.500000,-11.258331
 -7.000000,-12.124357
 -7.000000,-12.124357
 -7.500000,-12.990383
 -7.500000,-12.990383
 -8.500000,-12.990383
 -8.500000,-12.990383
 -9.000000,-12.124358
 -9.000000,-12.124358
 -8.500000,-11.258333
 -8.500000,-11.258333
 -9.000000,-10.392308
 -9.000000,-10.392308
-10.000000,-10.392308
-10.000000,-10.392308
-10.500000, -9.526283
-10.500000, -9.526283
-10.000000, -8.660257
-10.000000, -8.660257
 -9.000000, -8.660257
 -9.000000, -8.660257
 -8.500000, -7.794232
 -8.500000, -7.794232
 -9.000000, -6.928206
 -9.000000, -6.928206
-10.000000, -6.928206
-10.000000, -6.928206
-10.500000, -7.794232
-10.500000, -7.794232
-11.500000, -7.794232
-11.500000, -7.794232
-12.000000, -6.928206
-12.000000, -6.928206
-11.500000, -6.062181
-11.500000, -6.062181
-12.000000, -5.196156
-12.000000, -5.196156
-13.000000, -5.196156
-13.000000, -5.196156
-13.500000, -4.330130
-13.500000, -4.330130
-13.000000, -3.464105
-13.000000, -3.464105
-12.000000, -3.464105
-12.000000, -3.464105
-11.500000, -4.330130
-11.500000, -4.330130
-10.500000, -4.330130
-10.500000, -4.330130
-10.000000, -3.464105
-10.000000, -3.464105
-10.500000, -2.598079
-10.500000, -2.598079
-10.000000, -1.732054
-10.000000, -1.732054
 -9.000000, -1.732054
 -9.000000, -1.732054
 -8.500000, -0.866028
 -8.500000, -0.866028
 -9.000000, -0.000003
 -9.000000, -0.000003
-10.000000, -0.000003
-10.000000, -0.000003
-10.500000, -0.866028
-10.500000, -0.866028
-11.500000, -0.866028
-11.500000, -0.866028
-12.000000, -0.000003
-12.000000, -0.000003
-13.000000, -0.000003
-13.000000, -0.000003
-13.500000, -0.866029
-13.500000, -0.866029
-13.000000, -1.732054
-13.000000, -1.732054
-13.500000, -2.598079
-13.500000, -2.598079
-14.500000, -2.598079
-14.500000, -2.598079
-15.000000, -1.732054
-15.000000, -1.732054
-14.500000, -0.866029
-14.500000, -0.866029
-15.000000, -0.000003
-15.000000, -0.000003
-16.000000, -0.000003
-16.000000, -0.000003
-16.500000, -0.866029
-16.500000, -0.866029
-17.500000, -0.866029
-17.500000, -0.866029
-18.000000, -0.000003
-18.000000, -0.000003
-19.000000, -0.000003
-19.000000, -0.000003
-19.500000, -0.866029
-19.500000, -0.866029
-19.000000, -1.732054
-19.000000, -1.732054
-18.000000, -1.732054
-18.000000, -1.732054
-17.500000, -2.598080
-17.500000, -2.598080
-18.000000, -3.464105
-18.000000, -3.464105
-19.000000, -3.464105
-19.000000, -3.464105
-19.500000, -4.330131
-19.500000, -4.330131
-19.000000, -5.196156
-19.000000, -5.196156
-19.500000, -6.062182
-19.500000, -6.062182
-20.500000, -6.062182
-20.500000, -6.062182
-21.000000, -5.196156
-21.000000, -5.196156
-20.500000, -4.330131
-20.500000, -4.330131
-21.000000, -3.464105
-21.000000, -3.464105
-22.000000, -3.464105
-22.000000, -3.464105
-22.500000, -2.598080
-22.500000, -2.598080
-22.000000, -1.732054
-22.000000, -1.732054
-21.000000, -1.732054
-21.000000, -1.732054
-20.500000, -0.866029
-20.500000, -0.866029
-21.000000, -0.000003
-21.000000, -0.000003
-22.000000, -0.000003
-22.000000, -0.000003
-22.500000, -0.866029
-22.500000, -0.866029
-23.500000, -0.866029
-23.500000, -0.866029
-24.000000, -0.000004
-24.000000, -0.000004
-25.000000, -0.000004
-25.000000, -0.000004
-25.500000, -0.866029
-25.500000, -0.866029
-25.000000, -1.732054
-25.000000, -1.732054
-25.500000, -2.598080
-25.500000, -2.598080
-26.500000, -2.598080
-26.500000, -2.598080
-27.000000, -1.732054
-27.000000, -1.732054
-26.500000, -0.866029
-26.500000, -0.866029
-27.000000, -0.000004
-27.000000, -0.000004
-28.000000, -0.000004
-28.000000, -0.000004
-28.500000, -0.866029
-28.500000, -0.866029
-29.500000, -0.866029
-29.500000, -0.866029
-30.000000, -0.000004
-30.000000, -0.000004
-31.000000, -0.000004
-31.000000, -0.000004
-31.500000, -0.866029
-31.500000, -0.866029
-31.000000, -1.732055
-31.000000, -1.732055
-30.000000, -1.732055
-30.000000, -1.732055
-29.500000, -2.598080
-29.500000, -2.598080
-30.000000, -3.464106
-30.000000, -3.464106
-29.500000, -4.330131
-29.500000, -4.330131
-28.500000, -4.330131
-28.500000, -4.330131
-28.000000, -3.464106
-28.000000, -3.464106
-27.000000, -3.464105
-27.000000, -3.464105
-26.500000, -4.330131
-26.500000, -4.330131
-27.000000, -5.196156
-27.000000, -5.196156
-28.000000, -5.196156
-28.000000, -5.196156
-28.500000, -6.062182
-28.500000, -6.062182
-28.000000, -6.928207
-28.000000, -6.928207
-27.000000, -6.928207
-27.000000, -6.928207
-26.500000, -7.794232
-26.500000, -7.794232
-27.000000, -8.660257
-27.000000, -8.660257
-26.500000, -9.526283
-26.500000, -9.526283
-25.500000, -9.526283
-25.500000, -9.526283
-25.000000, -8.660258
-25.000000, -8.660258
-25.500000, -7.794233
-25.500000, -7.794233
-25.000000, -6.928207
-25.000000, -6.928207
-24.000000, -6.928207
-24.000000, -6.928207
-23.500000, -7.794233
-23.500000, -7.794233
-22.500000, -7.794233
-22.500000, -7.794233
-22.000000, -6.928207
-22.000000, -6.928207
-21.000000, -6.928207
-21.000000, -6.928207
-20.500000, -7.794233
-20.500000, -7.794233
-21.000000, -8.660258
-21.000000, -8.660258
-22.000000, -8.660258
-22.000000, -8.660258
-22.500000, -9.526283
-22.500000, -9.526283
-22.000000,-10.392309
-22.000000,-10.392309
-22.500000,-11.258335
-22.500000,-11.258335
-23.500000,-11.258335
-23.500000,-11.258335
-24.000000,-10.392310
-24.000000,-10.392310
-25.000000,-10.392310
-25.000000,-10.392310
-25.500000,-11.258335
-25.500000,-11.258335
-25.000000,-12.124361
-25.000000,-12.124361
-24.000000,-12.124361
-24.000000,-12.124361
-23.500000,-12.990387
-23.500000,-12.990387
-24.000000,-13.856413
-24.000000,-13.856413
-23.500000,-14.722439
-23.500000,-14.722439
-22.500000,-14.722439
-22.500000,-14.722439
-22.000000,-13.856414
-22.000000,-13.856414
-21.000000,-13.856414
-21.000000,-13.856414
-20.500000,-14.722439
-20.500000,-14.722439
-21.000000,-15.588465
-21.000000,-15.588465
-22.000000,-15.588465
-22.000000,-15.588465
-22.500000,-16.454490
-22.500000,-16.454490
-22.000000,-17.320517
-22.000000,-17.320517
-21.000000,-17.320517
-21.000000,-17.320517
-20.500000,-18.186543
-20.500000,-18.186543
-21.000000,-19.052568
-21.000000,-19.052568
-20.500000,-19.918594
-20.500000,-19.918594
-19.500000,-19.918594
-19.500000,-19.918594
-19.000000,-19.052568
-19.000000,-19.052568
-19.500000,-18.186543
-19.500000,-18.186543
-19.000000,-17.320517
-19.000000,-17.320517
-18.000000,-17.320517
-18.000000,-17.320517
-17.500000,-16.454490
-17.500000,-16.454490
-18.000000,-15.588466
-18.000000,-15.588466
-19.000000,-15.588466
-19.000000,-15.588466
-19.500000,-14.722441
-19.500000,-14.722441
-19.000000,-13.856416
-19.000000,-13.856416
-18.000000,-13.856416
-18.000000,-13.856416
-17.500000,-14.722441
-17.500000,-14.722441
-16.500000,-14.722441
-16.500000,-14.722441
-16.000000,-13.856416
-16.000000,-13.856416
-15.000000,-13.856416
-15.000000,-13.856416
-14.500000,-14.722441
-14.500000,-14.722441
-15.000000,-15.588467
-15.000000,-15.588467
-14.500000,-16.454493
-14.500000,-16.454493
-13.500000,-16.454493
-13.500000,-16.454493
-13.000000,-15.588468
-13.000000,-15.588468
-13.500000,-14.722443
-13.500000,-14.722443
-13.000000,-13.856418
-13.000000,-13.856418
-12.000000,-13.856418
-12.000000,-13.856418
-11.500000,-14.722443
-11.500000,-14.722443
-10.500000,-14.722443
-10.500000,-14.722443
-10.000000,-13.856418
-10.000000,-13.856418
 -9.000000,-13.856418
 -9.000000,-13.856418
 -8.500000,-14.722443
 -8.500000,-14.722443
 -9.000000,-15.588469
 -9.000000,-15.588469
-10.000000,-15.588469
-10.000000,-15.588469
-10.500000,-16.454494
-10.500000,-16.454494
-10.000000,-17.320520
-10.000000,-17.320520
-10.500000,-18.186546
-10.500000,-18.186546
-11.500000,-18.186546
-11.500000,-18.186546
-12.000000,-17.320520
-12.000000,-17.320520
-13.000000,-17.320520
-13.000000,-17.320520
-13.500000,-18.186546
-13.500000,-18.186546
-13.000000,-19.052572
-13.000000,-19.052572
-12.000000,-19.052572
-12.000000,-19.052572
-11.500000,-19.918598
-11.500000,-19.918598
-12.000000,-20.784624
-12.000000,-20.784624
-13.000000,-20.784624
-13.000000,-20.784624
-13.500000,-21.650650
-13.500000,-21.650650
-13.000000,-22.516676
-13.000000,-22.516676
-13.500000,-23.382702
-13.500000,-23.382702
-14.500000,-23.382702
-14.500000,-23.382702
-15.000000,-22.516676
-15.000000,-22.516676
-14.500000,-21.650650
-14.500000,-21.650650
-15.000000,-20.784624
-15.000000,-20.784624
-16.000000,-20.784624
-16.000000,-20.784624
-16.500000,-21.650650
-16.500000,-21.650650
-17.500000,-21.650650
-17.500000,-21.650650
-18.000000,-20.784624
-18.000000,-20.784624
-19.000000,-20.784624
-19.000000,-20.784624
-19.500000,-21.650650
-19.500000,-21.650650
-19.000000,-22.516676
-19.000000,-22.516676
-18.000000,-22.516676
-18.000000,-22.516676
-17.500000,-23.382702
-17.500000,-23.382702
-18.000000,-24.248728
-18.000000,-24.248728
-17.500000,-25.114754
-17.500000,-25.114754
-16.500000,-25.114754
-16.500000,-25.114754
-16.000000,-24.248728
-16.000000,-24.248728
-15.000000,-24.248728
-15.000000,-24.248728
-14.500000,-25.114754
-14.500000,-25.114754
-15.000000,-25.980780
-15.000000,-25.980780
-16.000000,-25.980780
-16.000000,-25.980780
-16.500000,-26.846806
-16.500000,-26.846806
-16.000000,-27.712831
 "
/>
</svg>
