<svg xmlns="http://www.w3.org/2000/svg"
 viewBox="-29.09846 -1.385641 30.4841 34.271282"
>
<polyline
 fill="none" stroke="green" stroke-width="0.25%"
 points="
  0.000000,  0.000000
 -0.000000,  1.000000
 -0.000000,  1.000000
 -0.866025,  1.500000
 -0.866025,  1.500000
 -1.732051,  1.000000
 -1.732051,  1.000000
 -2.598076,  1.500000
 -2.598076,  1.500000
 -2.598076,  2.500000
 -2.598076,  2.500000
 -1.732051,  3.000000
 -1.732051,  3.000000
 -0.866026,  2.500000
 -0.866026,  2.500000
 -0.000000,  3.000000
 -0.000000,  3.000000
 -0.000000,  4.000000
 -0.000000,  4.000000
 -0.866026,  4.500000
 -0.866026,  4.500000
 -0.866026,  5.500000
 -0.866026,  5.500000
 -0.000000,  6.000000
 -0.000000,  6.000000
 -0.000000,  7.000000
 -0.000000,  7.000000
 -0.866026,  7.500000
 -0.866026,  7.500000
 -1.732051,  7.000000
 -1.732051,  7.000000
 -1.732051,  6.000000
 -1.732051,  6.000000
 -2.598077,  5.500000
 -2.598077,  5.500000
 -3.464102,  6.000000
 -3.464102,  6.000000
 -4.330127,  5.500000
 -4.330127,  5.500000
 -4.330127,  4.500000
 -4.330127,  4.500000
 -3.464102,  4.000000
 -3.464102,  4.000000
 -3.464102,  3.000000
 -3.464102,  3.000000
 -4.330127,  2.500000
 -4.330127,  2.500000
 -5.196153,  3.000000
 -5.196153,  3.000000
 -5.196153,  4.000000
 -5.196153,  4.000000
 -6.062178,  4.500000
 -6.062178,  4.500000
 -6.928204,  4.000000
 -6.928204,  4.000000
 -7.794229,  4.500000
 -7.794229,  4.500000
 -7.794229,  5.500000
 -7.794229,  5.500000
 -6.928204,  6.000000
 -6.928204,  6.000000
 -6.928204,  7.000000
 -6.928204,  7.000000
 -7.794229,  7.500000
 -7.794229,  7.500000
 -8.660254,  7.000000
 -8.660254,  7.000000
 -8.660254,  6.000000
 -8.660254,  6.000000
 -9.526279,  5.500000
 -9.526279,  5.500000
-10.392304,  6.000000
-10.392304,  6.000000
-10.392304,  7.000000
-10.392304,  7.000000
-11.258329,  7.500000
-11.258329,  7.500000
-12.124354,  7.000000
-12.124354,  7.000000
-12.990379,  7.500000
-12.990379,  7.500000
-12.990379,  8.500000
-12.990379,  8.500000
-12.124354,  9.000000
-12.124354,  9.000000
-11.258329,  8.500000
-11.258329,  8.500000
-10.392304,  9.000000
-10.392304,  9.000000
-10.392304, 10.000000
-10.392304, 10.000000
 -9.526279, 10.500000
 -9.526279, 10.500000
 -8.660254, 10.000000
 -8.660254, 10.000000
 -8.660254,  9.000000
 -8.660254,  9.000000
 -7.794229,  8.500000
 -7.794229,  8.500000
 -6.928204,  9.000000
 -6.928204,  9.000000
 -6.928204, 10.000000
 -6.928204, 10.000000
 -7.794229, 10.500000
 -7.794229, 10.500000
 -7.794229, 11.500000
 -7.794229, 11.500000
 -6.928204, 12.000000
 -6.928204, 12.000000
 -6.062178, 11.500000
 -6.062178, 11.500000
 -5.196153, 12.000000
 -5.196153, 12.000000
 -5.196153, 13.000000
 -5.196153, 13.000000
 -4.330127, 13.500000
 -4.330127, 13.500000
 -3.464102, 13.000000
 -3.464102, 13.000000
 -3.464102, 12.000000
 -3.464102, 12.000000
 -4.330127, 11.500000
 -4.330127, 11.500000
 -4.330127, 10.500000
 -4.330127, 10.500000
 -3.464102, 10.000000
 -3.464102, 10.000000
 -2.598076, 10.500000
 -2.598076, 10.500000
 -1.732051, 10.000000
 -1.732051, 10.000000
 -1.732051,  9.000000
 -1.732051,  9.000000
 -0.866026,  8.500000
 -0.866026,  8.500000
 -0.000000,  9.000000
 -0.000000,  9.000000
 -0.000000, 10.000000
 -0.000000, 10.000000
 -0.866026, 10.500000
 -0.866026, 10.500000
 -0.866026, 11.500000
 -0.866026, 11.500000
 -0.000000, 12.000000
 -0.000000, 12.000000
 -0.000000, 13.000000
 -0.000000, 13.000000
 -0.866026, 13.500000
 -0.866026, 13.500000
 -1.732051, 13.000000
 -1.732051, 13.000000
 -2.598077, 13.500000
 -2.598077, 13.500000
 -2.598077, 14.500000
 -2.598077, 14.500000
 -1.732051, 15.000000
 -1.732051, 15.000000
 -0.866026, 14.500000
 -0.866026, 14.500000
 -0.000000, 15.000000
 -0.000000, 15.000000
 -0.000000, 16.000000
 -0.000000, 16.000000
 -0.866026, 16.500000
 -0.866026, 16.500000
 -0.866026, 17.500000
 -0.866026, 17.500000
 -0.000000, 18.000000
 -0.000000, 18.000000
 -0.000001, 19.000000
 -0.000001, 19.000000
 -0.866026, 19.500000
 -0.866026, 19.500000
 -1.732051, 19.000000
 -1.732051, 19.000000
 -1.732051, 18.000000
 -1.732051, 18.000000
 -2.598077, 17.500000
 -2.598077, 17.500000
 -3.464102, 18.000000
 -3.464102, 18.000000
 -3.464102, 19.000000
 -3.464102, 19.000000
 -4.330128, 19.500000
 -4.330128, 19.500000
 -5.196153, 19.000000
 -5.196153, 19.000000
 -6.062179, 19.500000
 -6.062179, 19.500000
 -6.062179, 20.500000
 -6.062179, 20.500000
 -5.196153, 21.000000
 -5.196153, 21.000000
 -4.330128, 20.500000
 -4.330128, 20.500000
 -3.464102, 21.000000
 -3.464102, 21.000000
 -3.464102, 22.000000
 -3.464102, 22.000000
 -2.598077, 22.500000
 -2.598077, 22.500000
 -1.732051, 22.000000
 -1.732051, 22.000000
 -1.732051, 21.000000
 -1.732051, 21.000000
 -0.866026, 20.500000
 -0.866026, 20.500000
 -0.000001, 21.000000
 -0.000001, 21.000000
 -0.000001, 22.000000
 -0.000001, 22.000000
 -0.866026, 22.500000
 -0.866026, 22.500000
 -0.866026, 23.500000
 -0.866026, 23.500000
 -0.000001, 24.000000
 -0.000001, 24.000000
 -0.000001, 25.000000
 -0.000001, 25.000000
 -0.866026, 25.500000
 -0.866026, 25.500000
 -1.732052, 25.000000
 -1.732052, 25.000000
 -2.598077, 25.500000
 -2.598077, 25.500000
 -2.598077, 26.500000
 -2.598077, 26.500000
 -1.732052, 27.000000
 -1.732052, 27.000000
 -0.866026, 26.500000
 -0.866026, 26.500000
 -0.000001, 27.000000
 -0.000001, 27.000000
 -0.000001, 28.000000
 -0.000001, 28.000000
 -0.866026, 28.500000
 -0.866026, 28.500000
 -0.866026, 29.500000
 -0.866026, 29.500000
 -0.000001, 30.000000
 -0.000001, 30.000000
 -0.000001, 31.000000
 -0.000001, 31.000000
 -0.866026, 31.500000
 -0.866026, 31.500000
 -1.732052, 31.000000
 -1.732052, 31.000000
 -1.732052, 30.000000
 -1.732052, 30.000000
 -2.598077, 29.500000
 -2.598077, 29.500000
 -3.464103, 30.000000
 -3.464103, 30.000000
 -4.330128, 29.500000
 -4.330128, 29.500000
 -4.330128, 28.500000
 -4.330128, 28.500000
 -3.464103, 28.000000
 -3.464103, 28.000000
 -3.464103, 27.000000
 -3.464103, 27.000000
 -4.330128, 26.500000
 -4.330128, 26.500000
 -5.196154, 27.000000
 -5.196154, 27.000000
 -5.196154, 28.000000
 -5.196154, 28.000000
 -6.062179, 28.500000
 -6.062179, 28.500000
 -6.928204, 28.000000
 -6.928204, 28.000000
 -6.928204, 27.000000
 -6.928204, 27.000000
 -7.794230, 26.500000
 -7.794230, 26.500000
 -8.660255, 27.000000
 -8.660255, 27.000000
 -9.526280, 26.500000
 -9.526280, 26.500000
 -9.526280, 25.500000
 -9.526280, 25.500000
 -8.660255, 25.000000
 -8.660255, 25.000000
 -7.794230, 25.500000
 -7.794230, 25.500000
 -6.928204, 25.000000
 -6.928204, 25.000000
 -6.928204, 24.000000
 -6.928204, 24.000000
 -7.794230, 23.500000
 -7.794230, 23.500000
 -7.794230, 22.500000
 -7.794230, 22.500000
 -6.928204, 22.000000
 -6.928204, 22.000000
 -6.928204, 21.000000
 -6.928204, 21.000000
 -7.794230, 20.500000
 -7.794230, 20.500000
 -8.660255, 21.000000
 -8.660255, 21.000000
 -8.660255, 22.000000
 -8.660255, 22.000000
 -9.526280, 22.500000
 -9.526280, 22.500000
-10.392305, 22.000000
-10.392305, 22.000000
-11.258330, 22.500000
-11.258330, 22.500000
-11.258330, 23.500000
-11.258330, 23.500000
-10.392305, 24.000000
-10.392305, 24.000000
-10.392305, 25.000000
-10.392305, 25.000000
-11.258330, 25.500000
-11.258330, 25.500000
-12.124355, 25.000000
-12.124355, 25.000000
-12.124355, 24.000000
-12.124355, 24.000000
-12.990380, 23.500000
-12.990380, 23.500000
-13.856405, 24.000000
-13.856405, 24.000000
-14.722430, 23.500000
-14.722430, 23.500000
-14.722430, 22.500000
-14.722430, 22.500000
-13.856405, 22.000000
-13.856405, 22.000000
-13.856405, 21.000000
-13.856405, 21.000000
-14.722430, 20.500000
-14.722430, 20.500000
-15.588455, 21.000000
-15.588455, 21.000000
-15.588455, 22.000000
-15.588455, 22.000000
-16.454481, 22.500000
-16.454481, 22.500000
-17.320507, 22.000000
-17.320507, 22.000000
-17.320507, 21.000000
-17.320507, 21.000000
-18.186533, 20.500000
-18.186533, 20.500000
-19.052559, 21.000000
-19.052559, 21.000000
-19.918585, 20.500000
-19.918585, 20.500000
-19.918585, 19.500000
-19.918585, 19.500000
-19.052559, 19.000000
-19.052559, 19.000000
-18.186533, 19.500000
-18.186533, 19.500000
-17.320507, 19.000000
-17.320507, 19.000000
-17.320507, 18.000000
-17.320507, 18.000000
-16.454481, 17.500000
-16.454481, 17.500000
-15.588456, 18.000000
-15.588456, 18.000000
-15.588456, 19.000000
-15.588456, 19.000000
-14.722431, 19.500000
-14.722431, 19.500000
-13.856406, 19.000000
-13.856406, 19.000000
-13.856406, 18.000000
-13.856406, 18.000000
-14.722431, 17.500000
-14.722431, 17.500000
-14.722431, 16.500000
-14.722431, 16.500000
-13.856406, 16.000000
-13.856406, 16.000000
-13.856406, 15.000000
-13.856406, 15.000000
-14.722431, 14.500000
-14.722431, 14.500000
-15.588456, 15.000000
-15.588456, 15.000000
-16.454481, 14.500000
-16.454481, 14.500000
-16.454481, 13.500000
-16.454481, 13.500000
-15.588456, 13.000000
-15.588456, 13.000000
-14.722431, 13.500000
-14.722431, 13.500000
-13.856406, 13.000000
-13.856406, 13.000000
-13.856406, 12.000000
-13.856406, 12.000000
-14.722431, 11.500000
-14.722431, 11.500000
-14.722431, 10.500000
-14.722431, 10.500000
-13.856406, 10.000000
-13.856406, 10.000000
-13.856406,  9.000000
-13.856406,  9.000000
-14.722431,  8.500000
-14.722431,  8.500000
-15.588456,  9.000000
-15.588456,  9.000000
-15.588456, 10.000000
-15.588456, 10.000000
-16.454481, 10.500000
-16.454481, 10.500000
-17.320507, 10.000000
-17.320507, 10.000000
-18.186533, 10.500000
-18.186533, 10.500000
-18.186533, 11.500000
-18.186533, 11.500000
-17.320507, 12.000000
-17.320507, 12.000000
-17.320507, 13.000000
-17.320507, 13.000000
-18.186533, 13.500000
-18.186533, 13.500000
-19.052559, 13.000000
-19.052559, 13.000000
-19.052559, 12.000000
-19.052559, 12.000000
-19.918585, 11.500000
-19.918585, 11.500000
-20.784610, 12.000000
-20.784610, 12.000000
-20.784610, 13.000000
-20.784610, 13.000000
-21.650637, 13.500000
-21.650637, 13.500000
-22.516663, 13.000000
-22.516663, 13.000000
-23.382689, 13.500000
-23.382689, 13.500000
-23.382689, 14.500000
-23.382689, 14.500000
-22.516663, 15.000000
-22.516663, 15.000000
-21.650637, 14.500000
-21.650637, 14.500000
-20.784610, 15.000000
-20.784610, 15.000000
-20.784610, 16.000000
-20.784610, 16.000000
-21.650637, 16.500000
-21.650637, 16.500000
-21.650637, 17.500000
-21.650637, 17.500000
-20.784610, 18.000000
-20.784610, 18.000000
-20.784610, 19.000000
-20.784610, 19.000000
-21.650637, 19.500000
-21.650637, 19.500000
-22.516663, 19.000000
-22.516663, 19.000000
-22.516663, 18.000000
-22.516663, 18.000000
-23.382689, 17.500000
-23.382689, 17.500000
-24.248714, 18.000000
-24.248714, 18.000000
-25.114740, 17.500000
-25.114740, 17.500000
-25.114740, 16.500000
-25.114740, 16.500000
-24.248714, 16.000000
-24.248714, 16.000000
-24.248714, 15.000000
-24.248714, 15.000000
-25.114740, 14.500000
-25.114740, 14.500000
-25.980766, 15.000000
-25.980766, 15.000000
-25.980766, 16.000000
-25.980766, 16.000000
-26.846792, 16.500000
-26.846792, 16.500000
-27.712818, 16.000000
 "
/>
</svg>
