<svg xmlns="http://www.w3.org/2000/svg"
 viewBox="-21.78461 -10.500002 22.78461 22.000002"
>
<polyline
 fill="none" stroke="green" stroke-width="0.25%"
 points="
  0.000000,  0.000000
 -0.000000,  1.000000
 -0.000000,  1.000000
 -0.866025,  1.500000
 -0.866025,  1.500000
 -0.866025,  1.500000
 -0.866025,  0.500000
 -0.866025,  0.500000
 -1.732051,  0.000000
 -1.732051,  0.000000
 -1.732051,  0.000000
 -1.732051,  1.000000
 -1.732051,  2.000000
 -1.732051,  2.000000
 -0.866026,  2.500000
 -0.866026,  2.500000
 -0.866026,  2.500000
 -0.866026,  2.500000
 -0.866026,  3.500000
 -0.866026,  3.500000
 -1.732051,  4.000000
 -2.598076,  4.500000
 -2.598076,  4.500000
 -2.598076,  4.500000
 -2.598076,  3.500000
 -2.598076,  3.500000
 -1.732051,  3.000000
 -1.732051,  3.000000
 -1.732051,  3.000000
 -2.598076,  2.500000
 -2.598076,  2.500000
 -3.464102,  3.000000
 -3.464102,  3.000000
 -3.464102,  3.000000
 -3.464102,  3.000000
 -4.330127,  2.500000
 -4.330127,  2.500000
 -4.330127,  1.500000
 -4.330127,  0.500000
 -4.330127,  0.500000
 -4.330127,  0.500000
 -3.464102,  1.000000
 -3.464102,  1.000000
 -3.464102,  2.000000
 -3.464102,  2.000000
 -3.464102,  2.000000
 -2.598076,  1.500000
 -2.598076,  1.500000
 -2.598076,  0.500000
 -2.598076,  0.500000
 -3.464102, -0.000000
 -3.464102, -0.000000
 -3.464102, -1.000000
 -3.464102, -1.000000
 -3.464102, -1.000000
 -2.598076, -0.500000
 -2.598076, -0.500000
 -1.732051, -1.000001
 -1.732051, -1.000001
 -1.732051, -1.000001
 -2.598076, -1.500001
 -3.464102, -2.000000
 -3.464102, -2.000000
 -4.330127, -1.500000
 -4.330127, -1.500000
 -4.330127, -1.500000
 -4.330127, -1.500000
 -4.330127, -0.500000
 -4.330127, -0.500000
 -5.196153, -0.000000
 -5.196153, -0.000000
 -5.196153, -0.000000
 -5.196153, -1.000000
 -5.196153, -1.000000
 -6.062178, -1.500000
 -6.062178, -1.500000
 -6.062178, -1.500000
 -6.062178, -0.500000
 -6.062178,  0.500000
 -6.062178,  0.500000
 -5.196153,  1.000000
 -5.196153,  1.000000
 -5.196153,  2.000000
 -5.196153,  2.000000
 -6.062178,  2.500000
 -6.062178,  2.500000
 -6.062178,  2.500000
 -6.062178,  1.500000
 -6.062178,  1.500000
 -6.928204,  1.000000
 -6.928204,  1.000000
 -6.928204,  1.000000
 -6.928204,  2.000000
 -6.928204,  3.000000
 -6.928204,  3.000000
 -6.062178,  3.500000
 -6.062178,  3.500000
 -6.062178,  3.500000
 -6.062178,  3.500000
 -5.196153,  3.000000
 -5.196153,  3.000000
 -4.330127,  3.500000
 -3.464102,  4.000000
 -3.464102,  4.000000
 -3.464102,  4.000000
 -4.330127,  4.500000
 -4.330127,  4.500000
 -5.196153,  4.000000
 -5.196153,  4.000000
 -5.196153,  4.000000
 -5.196153,  5.000000
 -5.196153,  5.000000
 -4.330127,  5.500000
 -4.330127,  5.500000
 -4.330127,  5.500000
 -4.330127,  5.500000
 -4.330127,  6.500000
 -4.330127,  6.500000
 -5.196153,  7.000000
 -5.196153,  7.000000
 -5.196153,  7.000000
 -5.196153,  6.000000
 -5.196153,  6.000000
 -6.062178,  5.500000
 -6.062178,  5.500000
 -6.062178,  5.500000
 -6.062178,  6.500000
 -6.062178,  7.500000
 -6.062178,  7.500000
 -5.196153,  8.000000
 -5.196153,  8.000000
 -5.196153,  8.000000
 -5.196153,  8.000000
 -5.196153,  9.000000
 -5.196153,  9.000000
 -6.062178,  9.500000
 -6.928204, 10.000000
 -6.928204, 10.000000
 -6.928204, 10.000000
 -6.928204,  9.000000
 -6.928204,  9.000000
 -6.062178,  8.500000
 -6.062178,  8.500000
 -6.062178,  8.500000
 -6.928204,  8.000000
 -6.928204,  8.000000
 -7.794229,  8.500000
 -7.794229,  8.500000
 -7.794229,  9.500000
 -7.794229,  9.500000
 -8.660254, 10.000000
 -9.526279, 10.500000
 -9.526279, 10.500000
 -9.526279, 10.500000
 -9.526279,  9.500000
 -9.526279,  9.500000
 -8.660254,  9.000000
 -8.660254,  9.000000
 -8.660254,  9.000000
 -9.526279,  8.500000
 -9.526279,  8.500000
-10.392304,  9.000000
-10.392304,  9.000000
-10.392304,  9.000000
-10.392304,  9.000000
-11.258329,  8.500000
-11.258329,  8.500000
-11.258329,  7.500000
-11.258329,  6.500000
-11.258329,  6.500000
-11.258329,  6.500000
-10.392304,  7.000000
-10.392304,  7.000000
-10.392304,  8.000000
-10.392304,  8.000000
-10.392304,  8.000000
 -9.526279,  7.500000
 -9.526279,  7.500000
 -9.526279,  6.500000
 -9.526279,  6.500000
 -8.660254,  6.000000
 -8.660254,  6.000000
 -7.794229,  6.500000
 -7.794229,  6.500000
 -7.794229,  6.500000
 -8.660254,  7.000000
 -8.660254,  7.000000
 -8.660254,  8.000000
 -8.660254,  8.000000
 -8.660254,  8.000000
 -7.794229,  7.500000
 -6.928204,  7.000000
 -6.928204,  7.000000
 -6.928204,  6.000000
 -6.928204,  6.000000
 -6.928204,  6.000000
 -6.928204,  6.000000
 -7.794229,  5.500000
 -7.794229,  5.500000
 -7.794229,  4.500000
 -7.794229,  4.500000
 -7.794229,  4.500000
 -6.928204,  5.000000
 -6.928204,  5.000000
 -6.062178,  4.500000
 -6.062178,  4.500000
 -6.062178,  4.500000
 -6.928204,  4.000000
 -7.794229,  3.500000
 -7.794229,  3.500000
 -8.660254,  4.000000
 -8.660254,  4.000000
 -8.660254,  4.000000
 -8.660254,  4.000000
 -8.660254,  5.000000
 -8.660254,  5.000000
 -9.526279,  5.500000
-10.392304,  6.000000
-10.392304,  6.000000
-10.392304,  6.000000
-10.392304,  5.000000
-10.392304,  5.000000
 -9.526279,  4.500000
 -9.526279,  4.500000
 -9.526279,  4.500000
-10.392304,  4.000000
-10.392304,  4.000000
-11.258329,  4.500000
-11.258329,  4.500000
-11.258329,  4.500000
-11.258329,  4.500000
-12.124354,  4.000000
-12.124354,  4.000000
-12.124354,  3.000000
-12.124354,  3.000000
-12.124354,  3.000000
-11.258329,  3.500000
-11.258329,  3.500000
-10.392304,  3.000000
-10.392304,  3.000000
-10.392304,  3.000000
-11.258329,  2.500000
-12.124354,  2.000000
-12.124354,  2.000000
-12.990379,  2.500000
-12.990379,  2.500000
-12.990379,  2.500000
-12.990379,  2.500000
-13.856404,  2.000000
-13.856404,  2.000000
-13.856404,  1.000000
-13.856404, -0.000000
-13.856404, -0.000000
-13.856404, -0.000000
-12.990379,  0.500000
-12.990379,  0.500000
-12.990379,  1.500000
-12.990379,  1.500000
-12.990379,  1.500000
-12.124354,  1.000000
-12.124354,  1.000000
-12.124354, -0.000000
-12.124354, -0.000000
-12.990379, -0.500000
-12.990379, -0.500000
-12.990379, -1.500000
-12.990379, -2.500000
-12.990379, -2.500000
-12.990379, -2.500000
-12.124354, -2.000000
-12.124354, -2.000000
-12.124354, -1.000000
-12.124354, -1.000000
-12.124354, -1.000000
-11.258329, -1.500001
-11.258329, -1.500001
-11.258329, -2.500001
-11.258329, -2.500001
-11.258329, -2.500001
-11.258329, -2.500001
-10.392304, -3.000001
-10.392304, -3.000001
 -9.526279, -2.500001
 -8.660254, -2.000001
 -8.660254, -2.000001
 -8.660254, -2.000001
 -9.526279, -1.500001
 -9.526279, -1.500001
-10.392305, -2.000001
-10.392305, -2.000001
-10.392305, -2.000001
-10.392305, -1.000001
-10.392305, -1.000001
 -9.526280, -0.500001
 -9.526280, -0.500001
 -9.526280,  0.499999
 -9.526280,  0.499999
-10.392305,  0.999999
-10.392305,  0.999999
-10.392305,  0.999999
-10.392305, -0.000001
-10.392305, -0.000001
-11.258331, -0.500001
-11.258331, -0.500001
-11.258331, -0.500001
-11.258331,  0.499999
-11.258331,  1.499999
-11.258331,  1.499999
-10.392306,  1.999999
-10.392306,  1.999999
-10.392306,  1.999999
-10.392306,  1.999999
 -9.526281,  1.499999
 -9.526281,  1.499999
 -8.660256,  1.999999
 -8.660256,  1.999999
 -8.660256,  1.999999
 -9.526281,  2.499999
 -9.526281,  2.499999
 -9.526281,  3.499999
 -9.526281,  3.499999
 -9.526281,  3.499999
 -8.660256,  2.999998
 -7.794231,  2.499998
 -7.794231,  2.499998
 -7.794231,  1.499998
 -7.794231,  1.499998
 -7.794231,  1.499998
 -7.794231,  1.499998
 -8.660256,  0.999998
 -8.660256,  0.999998
 -8.660256, -0.000002
 -8.660256, -1.000002
 -8.660256, -1.000002
 -8.660256, -1.000002
 -7.794231, -0.500002
 -7.794231, -0.500002
 -7.794231,  0.499998
 -7.794231,  0.499998
 -7.794231,  0.499998
 -6.928206, -0.000002
 -6.928206, -0.000002
 -6.928206, -1.000002
 -6.928206, -1.000002
 -7.794231, -1.500002
 -7.794231, -1.500002
 -7.794231, -2.500002
 -7.794231, -2.500002
 -7.794231, -2.500002
 -6.928206, -2.000002
 -6.928206, -2.000002
 -6.062180, -2.500002
 -6.062180, -2.500002
 -6.062180, -2.500002
 -6.928206, -3.000002
 -7.794231, -3.500002
 -7.794231, -3.500002
 -8.660256, -3.000002
 -8.660256, -3.000002
 -8.660256, -3.000002
 -8.660256, -3.000002
 -9.526281, -3.500002
 -9.526281, -3.500002
 -9.526281, -4.500002
 -9.526281, -5.500002
 -9.526281, -5.500002
 -9.526281, -5.500002
 -8.660256, -5.000002
 -8.660256, -5.000002
 -8.660256, -4.000002
 -8.660256, -4.000002
 -8.660256, -4.000002
 -7.794231, -4.500002
 -7.794231, -4.500002
 -7.794231, -5.500002
 -7.794231, -5.500002
 -7.794231, -5.500002
 -7.794231, -5.500002
 -6.928206, -6.000002
 -6.928206, -6.000002
 -6.062180, -5.500002
 -5.196155, -5.000002
 -5.196155, -5.000002
 -5.196155, -5.000002
 -6.062180, -4.500002
 -6.062180, -4.500002
 -6.928206, -5.000002
 -6.928206, -5.000002
 -6.928206, -5.000002
 -6.928206, -4.000002
 -6.928206, -4.000002
 -6.062180, -3.500002
 -6.062180, -3.500002
 -5.196155, -4.000002
 -5.196155, -4.000002
 -4.330129, -3.500002
 -4.330129, -3.500002
 -4.330129, -3.500002
 -5.196155, -3.000002
 -5.196155, -3.000002
 -5.196155, -2.000002
 -5.196155, -2.000002
 -5.196155, -2.000002
 -4.330129, -2.500002
 -3.464104, -3.000002
 -3.464104, -3.000002
 -3.464104, -4.000002
 -3.464104, -4.000002
 -3.464104, -4.000002
 -3.464104, -4.000002
 -4.330129, -4.500002
 -4.330129, -4.500002
 -4.330129, -5.500002
 -4.330129, -5.500002
 -4.330129, -5.500002
 -3.464104, -5.000002
 -3.464104, -5.000002
 -2.598078, -5.500002
 -2.598078, -5.500002
 -2.598078, -5.500002
 -3.464104, -6.000002
 -4.330129, -6.500002
 -4.330129, -6.500002
 -5.196155, -6.000002
 -5.196155, -6.000002
 -6.062180, -6.500002
 -6.062180, -6.500002
 -6.062180, -7.500002
 -6.062180, -7.500002
 -6.062180, -7.500002
 -5.196155, -7.000002
 -5.196155, -7.000002
 -4.330129, -7.500002
 -4.330129, -7.500002
 -4.330129, -7.500002
 -5.196155, -8.000002
 -6.062180, -8.500002
 -6.062180, -8.500002
 -6.928206, -8.000002
 -6.928206, -8.000002
 -6.928206, -8.000002
 -6.928206, -8.000002
 -6.928206, -7.000002
 -6.928206, -7.000002
 -7.794231, -6.500002
 -8.660256, -6.000002
 -8.660256, -6.000002
 -8.660256, -6.000002
 -8.660256, -7.000002
 -8.660256, -7.000002
 -7.794231, -7.500002
 -7.794231, -7.500002
 -7.794231, -7.500002
 -8.660256, -8.000002
 -8.660256, -8.000002
 -9.526281, -7.500002
 -9.526281, -7.500002
 -9.526281, -7.500002
 -9.526281, -7.500002
 -9.526281, -6.500002
 -9.526281, -6.500002
-10.392306, -6.000002
-10.392306, -6.000002
-10.392306, -6.000002
-10.392306, -7.000002
-10.392306, -7.000002
-11.258331, -7.500002
-11.258331, -7.500002
-11.258331, -7.500002
-11.258331, -6.500002
-11.258331, -5.500002
-11.258331, -5.500002
-10.392306, -5.000002
-10.392306, -5.000002
-10.392306, -5.000002
-10.392306, -5.000002
-10.392306, -4.000002
-10.392306, -4.000002
-11.258331, -3.500002
-12.124356, -3.000002
-12.124356, -3.000002
-12.124356, -3.000002
-12.124356, -4.000002
-12.124356, -4.000002
-11.258331, -4.500002
-11.258331, -4.500002
-11.258331, -4.500002
-12.124356, -5.000002
-12.124356, -5.000002
-12.990381, -4.500002
-12.990381, -4.500002
-12.990381, -4.500002
-12.990381, -4.500002
-13.856406, -5.000002
-13.856406, -5.000002
-13.856406, -6.000002
-13.856406, -7.000002
-13.856406, -7.000002
-13.856406, -7.000002
-12.990381, -6.500002
-12.990381, -6.500002
-12.990381, -5.500002
-12.990381, -5.500002
-12.990381, -5.500002
-12.124356, -6.000002
-12.124356, -6.000002
-12.124356, -7.000002
-12.124356, -7.000002
-12.990381, -7.500002
-12.990381, -7.500002
-12.990381, -8.500002
-12.990381, -8.500002
-12.990381, -8.500002
-12.124356, -8.000002
-12.124356, -8.000002
-11.258331, -8.500002
-11.258331, -8.500002
-11.258331, -8.500002
-12.124356, -9.000002
-12.990381, -9.500002
-12.990381, -9.500002
-13.856406, -9.000002
-13.856406, -9.000002
-13.856406, -9.000002
-13.856406, -9.000002
-13.856406, -8.000002
-13.856406, -8.000002
-14.722431, -7.500002
-14.722431, -7.500002
-14.722431, -7.500002
-14.722431, -8.500002
-14.722431, -8.500002
-15.588456, -9.000002
-15.588456, -9.000002
-15.588456, -9.000002
-15.588456, -8.000002
-15.588456, -7.000002
-15.588456, -7.000002
-14.722431, -6.500002
-14.722431, -6.500002
-14.722431, -5.500002
-14.722431, -5.500002
-15.588456, -5.000002
-15.588456, -5.000002
-15.588456, -5.000002
-15.588456, -6.000002
-15.588456, -6.000002
-16.454481, -6.500002
-16.454481, -6.500002
-16.454481, -6.500002
-16.454481, -5.500002
-16.454481, -4.500002
-16.454481, -4.500002
-15.588456, -4.000002
-15.588456, -4.000002
-15.588456, -4.000002
-15.588456, -4.000002
-14.722431, -4.500002
-14.722431, -4.500002
-13.856406, -4.000002
-12.990381, -3.500002
-12.990381, -3.500002
-12.990381, -3.500002
-13.856406, -3.000002
-13.856406, -3.000002
-14.722431, -3.500002
-14.722431, -3.500002
-14.722431, -3.500002
-14.722431, -2.500002
-14.722431, -2.500002
-13.856406, -2.000002
-13.856406, -2.000002
-13.856406, -1.000002
-13.856406, -1.000002
-14.722431, -0.500002
-14.722431, -0.500002
-14.722431, -0.500002
-14.722431, -1.500002
-14.722431, -1.500002
-15.588456, -2.000002
-15.588456, -2.000002
-15.588456, -2.000002
-15.588456, -1.000002
-15.588456, -0.000002
-15.588456, -0.000002
-14.722431,  0.499998
-14.722431,  0.499998
-14.722431,  0.499998
-14.722431,  0.499998
-14.722431,  1.499998
-14.722431,  1.499998
-15.588456,  1.999998
-16.454481,  2.499998
-16.454481,  2.499998
-16.454481,  2.499998
-16.454481,  1.499998
-16.454481,  1.499998
-15.588456,  0.999998
-15.588456,  0.999998
-15.588456,  0.999998
-16.454481,  0.499998
-16.454481,  0.499998
-17.320507,  0.999998
-17.320507,  0.999998
-17.320507,  0.999998
-17.320507,  0.999998
-18.186533,  0.499998
-18.186533,  0.499998
-18.186533, -0.500002
-18.186533, -1.500002
-18.186533, -1.500002
-18.186533, -1.500002
-17.320507, -1.000002
-17.320507, -1.000002
-17.320507, -0.000002
-17.320507, -0.000002
-17.320507, -0.000002
-16.454481, -0.500002
-16.454481, -0.500002
-16.454481, -1.500002
-16.454481, -1.500002
-17.320507, -2.000002
-17.320507, -2.000002
-17.320507, -3.000002
-17.320507, -3.000002
-17.320507, -3.000002
-16.454481, -2.500002
-16.454481, -2.500002
-15.588456, -3.000002
-15.588456, -3.000002
-15.588456, -3.000002
-16.454481, -3.500002
-17.320507, -4.000002
-17.320507, -4.000002
-18.186533, -3.500002
-18.186533, -3.500002
-18.186533, -3.500002
-18.186533, -3.500002
-18.186533, -2.500002
-18.186533, -2.500002
-19.052559, -2.000002
-19.052559, -2.000002
-19.052559, -2.000002
-19.052559, -3.000002
-19.052559, -3.000002
-19.918585, -3.500002
-19.918585, -3.500002
-19.918585, -3.500002
-19.918585, -2.500002
-19.918585, -1.500002
-19.918585, -1.500002
-19.052559, -1.000002
-19.052559, -1.000002
-19.052559, -0.000002
-19.052559, -0.000002
-19.918585,  0.499998
-19.918585,  0.499998
-19.918585,  0.499998
-19.918585, -0.500002
-19.918585, -0.500002
-20.784610, -1.000002
-20.784610, -1.000002
-20.784610, -1.000002
-20.784610, -0.000002
-20.784610,  0.999998
-20.784610,  0.999998
-19.918585,  1.499998
-19.918585,  1.499998
-19.918585,  1.499998
-19.918585,  1.499998
-19.052559,  0.999998
-19.052559,  0.999998
-18.186533,  1.499998
-17.320507,  1.999998
-17.320507,  1.999998
-17.320507,  1.999998
-18.186533,  2.499998
-18.186533,  2.499998
-19.052559,  1.999998
-19.052559,  1.999998
-19.052559,  1.999998
-19.052559,  2.999998
-19.052559,  2.999998
-18.186533,  3.499998
-18.186533,  3.499998
-18.186533,  3.499998
-18.186533,  3.499998
-17.320507,  2.999998
-17.320507,  2.999998
-16.454481,  3.499998
-16.454481,  3.499998
-16.454481,  3.499998
-17.320507,  3.999998
-17.320507,  3.999998
-17.320507,  4.999998
-17.320507,  4.999998
-17.320507,  4.999998
-16.454481,  4.499998
-15.588456,  3.999998
-15.588456,  3.999998
-15.588456,  2.999998
-15.588456,  2.999998
-15.588456,  2.999998
-15.588456,  2.999998
-14.722431,  2.499998
-14.722431,  2.499998
-13.856406,  2.999998
-12.990381,  3.499998
-12.990381,  3.499998
-12.990381,  3.499998
-13.856406,  3.999998
-13.856406,  3.999998
-14.722431,  3.499998
-14.722431,  3.499998
-14.722431,  3.499998
-14.722431,  4.499998
-14.722431,  4.499998
-13.856406,  4.999998
-13.856406,  4.999998
-12.990381,  4.499998
-12.990381,  4.499998
-12.124356,  4.999998
-11.258331,  5.499998
-11.258331,  5.499998
-11.258331,  5.499998
-12.124356,  5.999998
-12.124356,  5.999998
-12.990381,  5.499998
-12.990381,  5.499998
-12.990381,  5.499998
-12.990381,  6.499998
-12.990381,  6.499998
-12.124356,  6.999998
-12.124356,  6.999998
-12.124356,  6.999998
-12.124356,  6.999998
-12.124356,  7.999998
-12.124356,  7.999998
-12.990381,  8.499998
-13.856406,  8.999998
-13.856406,  8.999998
-13.856406,  8.999998
-13.856406,  7.999998
-13.856406,  7.999998
-12.990381,  7.499998
-12.990381,  7.499998
-12.990381,  7.499998
-13.856406,  6.999998
-13.856406,  6.999998
-14.722431,  7.499998
-14.722431,  7.499998
-15.588456,  6.999998
-15.588456,  6.999998
-15.588456,  5.999998
-15.588456,  5.999998
-15.588456,  5.999998
-14.722431,  6.499998
-14.722431,  6.499998
-13.856406,  5.999998
-13.856406,  5.999998
-13.856406,  5.999998
-14.722431,  5.499998
-15.588456,  4.999998
-15.588456,  4.999998
-16.454481,  5.499998
-16.454481,  5.499998
-16.454481,  5.499998
-16.454481,  5.499998
-16.454481,  6.499998
-16.454481,  6.499998
-17.320507,  6.999998
-17.320507,  6.999998
-17.320507,  6.999998
-17.320507,  5.999998
-17.320507,  5.999998
-18.186533,  5.499998
-18.186533,  5.499998
-18.186533,  5.499998
-18.186533,  6.499998
-18.186533,  7.499998
-18.186533,  7.499998
-17.320507,  7.999998
-17.320507,  7.999998
-17.320507,  7.999998
-17.320507,  7.999998
-16.454481,  7.499998
-16.454481,  7.499998
-15.588456,  7.999998
-14.722431,  8.499998
-14.722431,  8.499998
-14.722431,  8.499998
-15.588456,  8.999998
-15.588456,  8.999998
-16.454481,  8.499998
-16.454481,  8.499998
-16.454481,  8.499998
-16.454481,  9.499998
-16.454481,  9.499998
-15.588456,  9.999998
-15.588456,  9.999998
 "
/>
</svg>
