<svg xmlns="http://www.w3.org/2000/svg"
 viewBox="-32.55 -1.5500003 34.1 34.1"
>
<polyline
 fill="none" stroke="green" stroke-width="0.25%"
 points="
  0.000000,  0.000000
  0.000000,  0.000000
  0.000000,  0.000000
  0.000000,  0.000000
  0.000000,  0.000000
  0.000000,  0.000000
 -1.000000, -0.000000
 -1.000000, -0.000000
 -1.000000,  1.000000
 -1.000000,  1.000000
  0.000000,  1.000000
  0.000000,  1.000000
 -0.000000,  2.000000
 -0.000000,  2.000000
 -0.000000,  2.000000
 -0.000000,  3.000000
 -0.000000,  3.000000
 -1.000000,  3.000000
 -1.000000,  3.000000
 -1.000000,  2.000000
 -1.000000,  2.000000
 -2.000000,  2.000000
 -2.000000,  2.000000
 -2.000000,  3.000000
 -2.000000,  3.000000
 -3.000000,  3.000000
 -3.000000,  3.000000
 -3.000000,  2.000000
 -3.000000,  2.000000
 -3.000000,  2.000000
 -3.000000,  1.000000
 -3.000000,  1.000000
 -2.000000,  1.000000
 -2.000000,  1.000000
 -2.000000,  0.000000
 -2.000000,  0.000000
 -3.000000,  0.000000
 -3.000000,  0.000000
 -3.000000,  0.000000
 -4.000000, -0.000000
 -4.000000, -0.000000
 -4.000000, -0.000000
 -4.000000, -0.000000
 -4.000000,  1.000000
 -4.000000,  1.000000
 -5.000000,  1.000000
 -5.000000,  1.000000
 -5.000000, -0.000000
 -5.000000, -0.000000
 -6.000000, -0.000000
 -6.000000, -0.000000
 -6.000000, -0.000000
 -7.000000, -0.000000
 -7.000000, -0.000000
 -7.000000,  1.000000
 -7.000000,  1.000000
 -6.000000,  1.000000
 -6.000000,  1.000000
 -6.000000,  2.000000
 -6.000000,  2.000000
 -7.000000,  2.000000
 -7.000000,  2.000000
 -7.000000,  3.000000
 -7.000000,  3.000000
 -6.000000,  3.000000
 -6.000000,  3.000000
 -6.000000,  3.000000
 -5.000000,  3.000000
 -5.000000,  3.000000
 -5.000000,  2.000000
 -5.000000,  2.000000
 -4.000000,  2.000000
 -4.000000,  2.000000
 -4.000000,  3.000000
 -4.000000,  3.000000
 -4.000000,  3.000000
 -4.000000,  4.000000
 -4.000000,  4.000000
 -4.000000,  4.000000
 -4.000000,  5.000000
 -4.000000,  5.000000
 -5.000000,  5.000000
 -5.000000,  5.000000
 -5.000000,  4.000000
 -5.000000,  4.000000
 -6.000000,  4.000000
 -6.000000,  4.000000
 -6.000000,  4.000000
 -7.000000,  4.000000
 -7.000000,  4.000000
 -7.000000,  5.000000
 -7.000000,  5.000000
 -6.000000,  5.000000
 -6.000000,  5.000000
 -6.000000,  6.000000
 -6.000000,  6.000000
 -7.000000,  6.000000
 -7.000000,  6.000000
 -7.000000,  7.000000
 -7.000000,  7.000000
 -6.000000,  7.000000
 -6.000000,  7.000000
 -6.000000,  7.000000
 -5.000000,  7.000000
 -5.000000,  7.000000
 -5.000000,  6.000000
 -5.000000,  6.000000
 -4.000000,  6.000000
 -4.000000,  6.000000
 -4.000000,  7.000000
 -4.000000,  7.000000
 -4.000000,  7.000000
 -4.000000,  7.000000
 -3.000000,  7.000000
 -3.000000,  7.000000
 -3.000000,  7.000000
 -2.000000,  7.000000
 -2.000000,  7.000000
 -2.000000,  6.000000
 -2.000000,  6.000000
 -3.000000,  6.000000
 -3.000000,  6.000000
 -3.000000,  5.000000
 -3.000000,  5.000000
 -3.000000,  5.000000
 -3.000000,  4.000000
 -3.000000,  4.000000
 -2.000000,  4.000000
 -2.000000,  4.000000
 -2.000000,  5.000000
 -2.000000,  5.000000
 -1.000000,  5.000000
 -1.000000,  5.000000
 -1.000000,  4.000000
 -1.000000,  4.000000
  0.000000,  4.000000
  0.000000,  4.000000
 -0.000000,  5.000000
 -0.000000,  5.000000
 -0.000000,  5.000000
 -0.000000,  6.000000
 -0.000000,  6.000000
 -1.000000,  6.000000
 -1.000000,  6.000000
 -1.000000,  7.000000
 -1.000000,  7.000000
 -0.000000,  7.000000
 -0.000000,  7.000000
 -0.000000,  7.000000
 -0.000000,  7.000000
 -0.000000,  8.000000
 -0.000000,  8.000000
 -0.000000,  8.000000
 -0.000000,  8.000000
 -0.000000,  8.000000
 -0.000000,  9.000000
 -0.000000,  9.000000
 -1.000000,  9.000000
 -1.000000,  9.000000
 -1.000000,  8.000000
 -1.000000,  8.000000
 -2.000000,  8.000000
 -2.000000,  8.000000
 -2.000000,  8.000000
 -3.000000,  8.000000
 -3.000000,  8.000000
 -3.000000,  9.000000
 -3.000000,  9.000000
 -2.000000,  9.000000
 -2.000000,  9.000000
 -2.000000, 10.000000
 -2.000000, 10.000000
 -3.000000, 10.000000
 -3.000000, 10.000000
 -3.000000, 11.000000
 -3.000000, 11.000000
 -2.000000, 11.000000
 -2.000000, 11.000000
 -2.000000, 11.000000
 -1.000000, 11.000000
 -1.000000, 11.000000
 -1.000000, 10.000000
 -1.000000, 10.000000
 -0.000000, 10.000000
 -0.000000, 10.000000
 -0.000000, 11.000000
 -0.000000, 11.000000
 -0.000000, 11.000000
 -0.000000, 12.000000
 -0.000000, 12.000000
 -0.000000, 12.000000
 -0.000000, 12.000000
 -1.000000, 12.000000
 -1.000000, 12.000000
 -1.000000, 13.000000
 -1.000000, 13.000000
 -0.000000, 13.000000
 -0.000000, 13.000000
 -0.000000, 14.000000
 -0.000000, 14.000000
 -0.000000, 14.000000
 -0.000000, 15.000000
 -0.000000, 15.000000
 -1.000000, 15.000000
 -1.000000, 15.000000
 -1.000000, 14.000000
 -1.000000, 14.000000
 -2.000000, 14.000000
 -2.000000, 14.000000
 -2.000000, 15.000000
 -2.000000, 15.000000
 -3.000000, 15.000000
 -3.000000, 15.000000
 -3.000000, 14.000000
 -3.000000, 14.000000
 -3.000000, 14.000000
 -3.000000, 13.000000
 -3.000000, 13.000000
 -2.000000, 13.000000
 -2.000000, 13.000000
 -2.000000, 12.000000
 -2.000000, 12.000000
 -3.000000, 12.000000
 -3.000000, 12.000000
 -3.000000, 12.000000
 -4.000000, 12.000000
 -4.000000, 12.000000
 -4.000000, 12.000000
 -5.000000, 12.000000
 -5.000000, 12.000000
 -5.000000, 13.000000
 -5.000000, 13.000000
 -4.000000, 13.000000
 -4.000000, 13.000000
 -4.000000, 14.000000
 -4.000000, 14.000000
 -4.000000, 14.000000
 -4.000000, 15.000000
 -4.000000, 15.000000
 -5.000000, 15.000000
 -5.000000, 15.000000
 -5.000000, 14.000000
 -5.000000, 14.000000
 -6.000000, 14.000000
 -6.000000, 14.000000
 -6.000000, 15.000000
 -6.000000, 15.000000
 -7.000000, 15.000000
 -7.000000, 15.000000
 -7.000000, 14.000000
 -7.000000, 14.000000
 -7.000000, 14.000000
 -7.000000, 13.000000
 -7.000000, 13.000000
 -6.000000, 13.000000
 -6.000000, 13.000000
 -6.000000, 12.000000
 -6.000000, 12.000000
 -7.000000, 12.000000
 -7.000000, 12.000000
 -7.000000, 12.000000
 -7.000000, 12.000000
 -7.000000, 11.000000
 -7.000000, 11.000000
 -7.000000, 11.000000
 -7.000000, 10.000000
 -7.000000, 10.000000
 -6.000000, 10.000000
 -6.000000, 10.000000
 -6.000000, 11.000000
 -6.000000, 11.000000
 -5.000000, 11.000000
 -5.000000, 11.000000
 -5.000000, 11.000000
 -4.000000, 11.000000
 -4.000000, 11.000000
 -4.000000, 10.000000
 -4.000000, 10.000000
 -5.000000, 10.000000
 -5.000000, 10.000000
 -5.000000,  9.000000
 -5.000000,  9.000000
 -4.000000,  9.000000
 -4.000000,  9.000000
 -4.000000,  8.000000
 -4.000000,  8.000000
 -5.000000,  8.000000
 -5.000000,  8.000000
 -5.000000,  8.000000
 -6.000000,  8.000000
 -6.000000,  8.000000
 -6.000000,  9.000000
 -6.000000,  9.000000
 -7.000000,  9.000000
 -7.000000,  9.000000
 -7.000000,  8.000000
 -7.000000,  8.000000
 -7.000000,  8.000000
 -7.000000,  8.000000
 -8.000000,  8.000000
 -8.000000,  8.000000
 -8.000000,  8.000000
 -8.000000,  8.000000
 -8.000000,  9.000000
 -8.000000,  9.000000
 -9.000000,  9.000000
 -9.000000,  9.000000
 -9.000000,  8.000000
 -9.000000,  8.000000
-10.000000,  8.000000
-10.000000,  8.000000
-10.000000,  8.000000
-11.000000,  8.000000
-11.000000,  8.000000
-11.000000,  9.000000
-11.000000,  9.000000
-10.000000,  9.000000
-10.000000,  9.000000
-10.000000, 10.000000
-10.000000, 10.000000
-11.000000, 10.000000
-11.000000, 10.000000
-11.000000, 11.000000
-11.000000, 11.000000
-10.000000, 11.000000
-10.000000, 11.000000
-10.000000, 11.000000
 -9.000000, 11.000000
 -9.000000, 11.000000
 -9.000000, 10.000000
 -9.000000, 10.000000
 -8.000000, 10.000000
 -8.000000, 10.000000
 -8.000000, 11.000000
 -8.000000, 11.000000
 -8.000000, 11.000000
 -8.000000, 12.000000
 -8.000000, 12.000000
 -8.000000, 12.000000
 -8.000000, 12.000000
 -9.000000, 12.000000
 -9.000000, 12.000000
 -9.000000, 13.000000
 -9.000000, 13.000000
 -8.000000, 13.000000
 -8.000000, 13.000000
 -8.000000, 14.000000
 -8.000000, 14.000000
 -8.000000, 14.000000
 -8.000000, 15.000000
 -8.000000, 15.000000
 -9.000000, 15.000000
 -9.000000, 15.000000
 -9.000000, 14.000000
 -9.000000, 14.000000
-10.000000, 14.000000
-10.000000, 14.000000
-10.000000, 15.000000
-10.000000, 15.000000
-11.000000, 15.000000
-11.000000, 15.000000
-11.000000, 14.000000
-11.000000, 14.000000
-11.000000, 14.000000
-11.000000, 13.000000
-11.000000, 13.000000
-10.000000, 13.000000
-10.000000, 13.000000
-10.000000, 12.000000
-10.000000, 12.000000
-11.000000, 12.000000
-11.000000, 12.000000
-11.000000, 12.000000
-12.000000, 12.000000
-12.000000, 12.000000
-12.000000, 12.000000
-13.000000, 12.000000
-13.000000, 12.000000
-13.000000, 13.000000
-13.000000, 13.000000
-12.000000, 13.000000
-12.000000, 13.000000
-12.000000, 14.000000
-12.000000, 14.000000
-12.000000, 14.000000
-12.000000, 15.000000
-12.000000, 15.000000
-13.000000, 15.000000
-13.000000, 15.000000
-13.000000, 14.000000
-13.000000, 14.000000
-14.000000, 14.000000
-14.000000, 14.000000
-14.000000, 15.000000
-14.000000, 15.000000
-15.000000, 15.000000
-15.000000, 15.000000
-15.000000, 14.000000
-15.000000, 14.000000
-15.000000, 14.000000
-15.000000, 13.000000
-15.000000, 13.000000
-14.000000, 13.000000
-14.000000, 13.000000
-14.000000, 12.000000
-14.000000, 12.000000
-15.000000, 12.000000
-15.000000, 12.000000
-15.000000, 12.000000
-15.000000, 12.000000
-15.000000, 11.000000
-15.000000, 11.000000
-15.000000, 11.000000
-15.000000, 10.000000
-15.000000, 10.000000
-14.000000, 10.000000
-14.000000, 10.000000
-14.000000, 11.000000
-14.000000, 11.000000
-13.000000, 11.000000
-13.000000, 11.000000
-13.000000, 11.000000
-12.000000, 11.000000
-12.000000, 11.000000
-12.000000, 10.000000
-12.000000, 10.000000
-13.000000, 10.000000
-13.000000, 10.000000
-13.000000,  9.000000
-13.000000,  9.000000
-12.000000,  9.000000
-12.000000,  9.000000
-12.000000,  8.000000
-12.000000,  8.000000
-13.000000,  8.000000
-13.000000,  8.000000
-13.000000,  8.000000
-14.000000,  8.000000
-14.000000,  8.000000
-14.000000,  9.000000
-14.000000,  9.000000
-15.000000,  9.000000
-15.000000,  9.000000
-15.000000,  8.000000
-15.000000,  8.000000
-15.000000,  8.000000
-15.000000,  8.000000
-15.000000,  8.000000
-15.000000,  7.000000
-15.000000,  7.000000
-15.000000,  7.000000
-15.000000,  7.000000
-14.000000,  7.000000
-14.000000,  7.000000
-14.000000,  6.000000
-14.000000,  6.000000
-15.000000,  6.000000
-15.000000,  6.000000
-15.000000,  5.000000
-15.000000,  5.000000
-15.000000,  5.000000
-15.000000,  4.000000
-15.000000,  4.000000
-14.000000,  4.000000
-14.000000,  4.000000
-14.000000,  5.000000
-14.000000,  5.000000
-13.000000,  5.000000
-13.000000,  5.000000
-13.000000,  4.000000
-13.000000,  4.000000
-12.000000,  4.000000
-12.000000,  4.000000
-12.000000,  5.000000
-12.000000,  5.000000
-12.000000,  5.000000
-12.000000,  6.000000
-12.000000,  6.000000
-13.000000,  6.000000
-13.000000,  6.000000
-13.000000,  7.000000
-13.000000,  7.000000
-12.000000,  7.000000
-12.000000,  7.000000
-12.000000,  7.000000
-11.000000,  7.000000
-11.000000,  7.000000
-11.000000,  7.000000
-11.000000,  7.000000
-11.000000,  6.000000
-11.000000,  6.000000
-10.000000,  6.000000
-10.000000,  6.000000
-10.000000,  7.000000
-10.000000,  7.000000
 -9.000000,  7.000000
 -9.000000,  7.000000
 -9.000000,  7.000000
 -8.000000,  7.000000
 -8.000000,  7.000000
 -8.000000,  6.000000
 -8.000000,  6.000000
 -9.000000,  6.000000
 -9.000000,  6.000000
 -9.000000,  5.000000
 -9.000000,  5.000000
 -8.000000,  5.000000
 -8.000000,  5.000000
 -8.000000,  4.000000
 -8.000000,  4.000000
 -9.000000,  4.000000
 -9.000000,  4.000000
 -9.000000,  4.000000
-10.000000,  4.000000
-10.000000,  4.000000
-10.000000,  5.000000
-10.000000,  5.000000
-11.000000,  5.000000
-11.000000,  5.000000
-11.000000,  4.000000
-11.000000,  4.000000
-11.000000,  4.000000
-11.000000,  3.000000
-11.000000,  3.000000
-11.000000,  3.000000
-11.000000,  2.000000
-11.000000,  2.000000
-10.000000,  2.000000
-10.000000,  2.000000
-10.000000,  3.000000
-10.000000,  3.000000
 -9.000000,  3.000000
 -9.000000,  3.000000
 -9.000000,  3.000000
 -8.000000,  3.000001
 -8.000000,  3.000001
 -8.000000,  2.000001
 -8.000000,  2.000001
 -9.000000,  2.000001
 -9.000000,  2.000001
 -9.000000,  1.000001
 -9.000000,  1.000001
 -8.000000,  1.000001
 -8.000000,  1.000001
 -8.000000,  0.000001
 -8.000000,  0.000001
 -9.000000,  0.000001
 -9.000000,  0.000001
 -9.000000,  0.000001
-10.000000,  0.000001
-10.000000,  0.000001
-10.000000,  1.000001
-10.000000,  1.000001
-11.000000,  1.000001
-11.000000,  1.000001
-11.000000,  0.000001
-11.000000,  0.000001
-11.000000,  0.000001
-11.000000,  0.000001
-12.000000,  0.000001
-12.000000,  0.000001
-12.000000,  0.000001
-13.000000,  0.000000
-13.000000,  0.000000
-13.000000,  1.000000
-13.000000,  1.000000
-12.000000,  1.000000
-12.000000,  1.000000
-12.000000,  2.000000
-12.000000,  2.000000
-12.000000,  2.000000
-12.000000,  3.000000
-12.000000,  3.000000
-13.000000,  3.000000
-13.000000,  3.000000
-13.000000,  2.000000
-13.000000,  2.000000
-14.000000,  2.000000
-14.000000,  2.000000
-14.000000,  3.000000
-14.000000,  3.000000
-15.000000,  3.000000
-15.000000,  3.000000
-15.000000,  2.000000
-15.000000,  2.000000
-15.000000,  2.000000
-15.000000,  1.000000
-15.000000,  1.000000
-14.000000,  1.000001
-14.000000,  1.000001
-14.000000,  0.000001
-14.000000,  0.000001
-15.000000,  0.000001
-15.000000,  0.000001
-15.000000,  0.000001
-15.000000,  0.000001
-15.000000,  0.000001
-16.000000,  0.000000
-16.000000,  0.000000
-16.000000,  0.000000
-16.000000,  0.000000
-16.000000,  0.000000
-16.000000,  0.000000
-16.000000,  1.000000
-16.000000,  1.000000
-17.000000,  1.000000
-17.000000,  1.000000
-17.000000,  0.000000
-17.000000,  0.000000
-18.000000,  0.000000
-18.000000,  0.000000
-18.000000,  0.000000
-19.000000,  0.000000
-19.000000,  0.000000
-19.000000,  1.000000
-19.000000,  1.000000
-18.000000,  1.000000
-18.000000,  1.000000
-18.000000,  2.000000
-18.000000,  2.000000
-19.000000,  2.000000
-19.000000,  2.000000
-19.000000,  3.000000
-19.000000,  3.000000
-18.000000,  3.000000
-18.000000,  3.000000
-18.000000,  3.000000
-17.000000,  3.000000
-17.000000,  3.000000
-17.000000,  2.000000
-17.000000,  2.000000
-16.000000,  2.000000
-16.000000,  2.000000
-16.000000,  3.000000
-16.000000,  3.000000
-16.000000,  3.000000
-16.000000,  4.000000
-16.000000,  4.000000
-16.000000,  4.000000
-16.000000,  4.000000
-17.000000,  4.000000
-17.000000,  4.000000
-17.000000,  5.000000
-17.000000,  5.000000
-16.000000,  5.000000
-16.000000,  5.000000
-16.000000,  6.000000
-16.000000,  6.000000
-16.000000,  6.000000
-16.000000,  7.000000
-16.000000,  7.000000
-17.000000,  7.000000
-17.000000,  7.000000
-17.000000,  6.000000
-17.000000,  6.000000
-18.000000,  6.000000
-18.000000,  6.000000
-18.000000,  7.000000
-18.000000,  7.000000
-19.000000,  7.000000
-19.000000,  7.000000
-19.000000,  6.000000
-19.000000,  6.000000
-19.000000,  6.000000
-19.000000,  5.000000
-19.000000,  5.000000
-18.000000,  5.000000
-18.000000,  5.000000
-18.000000,  4.000000
-18.000000,  4.000000
-19.000000,  4.000000
-19.000000,  4.000000
-19.000000,  4.000000
-20.000000,  4.000000
-20.000000,  4.000000
-20.000000,  4.000000
-21.000000,  4.000000
-21.000000,  4.000000
-21.000000,  5.000000
-21.000000,  5.000000
-20.000000,  5.000000
-20.000000,  5.000000
-20.000000,  6.000000
-20.000000,  6.000000
-20.000000,  6.000000
-20.000000,  7.000000
-20.000000,  7.000000
-21.000000,  7.000000
-21.000000,  7.000000
-21.000000,  6.000000
-21.000000,  6.000000
-22.000000,  6.000000
-22.000000,  6.000000
-22.000000,  7.000000
-22.000000,  7.000000
-23.000000,  7.000000
-23.000000,  7.000000
-23.000000,  6.000000
-23.000000,  6.000000
-23.000000,  6.000000
-23.000000,  5.000000
-23.000000,  5.000000
-22.000000,  5.000000
-22.000000,  5.000000
-22.000000,  4.000000
-22.000000,  4.000000
-23.000000,  4.000000
-23.000000,  4.000000
-23.000000,  4.000000
-23.000000,  4.000000
-23.000000,  3.000000
-23.000000,  3.000000
-23.000000,  3.000000
-23.000000,  2.000000
-23.000000,  2.000000
-22.000000,  2.000000
-22.000000,  2.000000
-22.000000,  3.000000
-22.000000,  3.000000
-21.000000,  3.000000
-21.000000,  3.000000
-21.000000,  3.000000
-20.000000,  3.000001
-20.000000,  3.000001
-20.000000,  2.000001
-20.000000,  2.000001
-21.000000,  2.000001
-21.000000,  2.000001
-21.000000,  1.000001
-21.000000,  1.000001
-20.000000,  1.000001
-20.000000,  1.000001
-20.000000,  0.000001
-20.000000,  0.000001
-21.000000,  0.000001
-21.000000,  0.000001
-21.000000,  0.000001
-22.000000,  0.000001
-22.000000,  0.000001
-22.000000,  1.000001
-22.000000,  1.000001
-23.000000,  1.000001
-23.000000,  1.000001
-23.000000,  0.000001
-23.000000,  0.000001
-23.000000,  0.000001
-23.000000,  0.000001
-24.000000,  0.000001
-24.000000,  0.000001
-24.000000,  0.000001
-24.000000,  0.000001
-24.000000,  0.000001
-25.000000,  0.000000
-25.000000,  0.000000
-25.000000,  1.000000
-25.000000,  1.000000
-24.000000,  1.000000
-24.000000,  1.000000
-24.000000,  2.000000
-24.000000,  2.000000
-24.000000,  2.000000
-24.000000,  3.000000
-24.000000,  3.000000
-25.000000,  3.000000
-25.000000,  3.000000
-25.000000,  2.000000
-25.000000,  2.000000
-26.000000,  2.000000
-26.000000,  2.000000
-26.000000,  3.000000
-26.000000,  3.000000
-27.000000,  3.000000
-27.000000,  3.000000
-27.000000,  2.000000
-27.000000,  2.000000
-27.000000,  2.000000
-27.000000,  1.000000
-27.000000,  1.000000
-26.000000,  1.000001
-26.000000,  1.000001
-26.000000,  0.000001
-26.000000,  0.000001
-27.000000,  0.000001
-27.000000,  0.000001
-27.000000,  0.000001
-28.000000,  0.000000
-28.000000,  0.000000
-28.000000,  0.000000
-28.000000,  0.000000
-28.000000,  1.000000
-28.000000,  1.000000
-29.000000,  1.000000
-29.000000,  1.000000
-29.000000,  0.000000
-29.000000,  0.000000
-30.000000,  0.000000
-30.000000,  0.000000
-30.000000,  0.000000
-31.000000,  0.000000
-31.000000,  0.000000
-31.000000,  1.000000
-31.000000,  1.000000
-30.000000,  1.000000
-30.000000,  1.000000
-30.000000,  2.000000
-30.000000,  2.000000
-31.000000,  2.000000
-31.000000,  2.000000
-31.000000,  3.000000
-31.000000,  3.000000
-30.000000,  3.000000
-30.000000,  3.000000
-30.000000,  3.000000
-29.000000,  3.000000
-29.000000,  3.000000
-29.000000,  2.000000
-29.000000,  2.000000
-28.000000,  2.000000
-28.000000,  2.000000
-28.000000,  3.000000
-28.000000,  3.000000
-28.000000,  3.000000
-28.000000,  4.000000
-28.000000,  4.000000
-28.000000,  4.000000
-28.000000,  5.000000
-28.000000,  5.000000
-29.000000,  5.000000
-29.000000,  5.000000
-29.000000,  4.000000
-29.000000,  4.000000
-30.000000,  4.000000
-30.000000,  4.000000
-30.000000,  4.000000
-31.000000,  4.000000
-31.000000,  4.000000
-31.000000,  5.000000
-31.000000,  5.000000
-30.000000,  5.000000
-30.000000,  5.000000
-30.000000,  6.000000
-30.000000,  6.000000
-31.000000,  6.000000
-31.000000,  6.000000
-31.000000,  7.000000
-31.000000,  7.000000
-30.000000,  7.000000
-30.000000,  7.000000
-30.000000,  7.000000
-29.000000,  7.000000
-29.000000,  7.000000
-29.000000,  6.000000
-29.000000,  6.000000
-28.000000,  6.000000
-28.000000,  6.000000
-28.000000,  7.000000
-28.000000,  7.000000
-28.000000,  7.000000
-28.000000,  7.000000
-27.000000,  7.000000
-27.000000,  7.000000
-27.000000,  7.000000
-26.000000,  7.000000
-26.000000,  7.000000
-26.000000,  6.000000
-26.000000,  6.000000
-27.000000,  6.000000
-27.000000,  6.000000
-27.000000,  5.000000
-27.000000,  5.000000
-27.000000,  5.000000
-27.000000,  4.000000
-27.000000,  4.000000
-26.000000,  4.000000
-26.000000,  4.000000
-26.000000,  5.000000
-26.000000,  5.000000
-25.000000,  5.000000
-25.000000,  5.000000
-25.000000,  4.000000
-25.000000,  4.000000
-24.000000,  4.000000
-24.000000,  4.000000
-24.000000,  5.000000
-24.000000,  5.000000
-24.000000,  5.000000
-24.000000,  6.000000
-24.000000,  6.000000
-25.000000,  6.000000
-25.000000,  6.000000
-25.000000,  7.000000
-25.000000,  7.000000
-24.000000,  7.000000
-24.000000,  7.000000
-24.000000,  7.000000
-24.000000,  7.000000
-24.000000,  8.000000
-24.000000,  8.000000
-24.000000,  8.000000
-24.000000,  8.000000
-25.000000,  8.000000
-25.000000,  8.000000
-25.000000,  9.000000
-25.000000,  9.000000
-24.000000,  9.000000
-24.000000,  9.000000
-24.000000, 10.000000
-24.000000, 10.000000
-24.000000, 10.000000
-24.000000, 11.000000
-24.000000, 11.000000
-25.000000, 11.000000
-25.000000, 11.000000
-25.000000, 10.000000
-25.000000, 10.000000
-26.000000, 10.000000
-26.000000, 10.000000
-26.000000, 11.000000
-26.000000, 11.000000
-27.000000, 11.000000
-27.000000, 11.000000
-27.000000, 10.000000
-27.000000, 10.000000
-27.000000, 10.000000
-27.000000,  9.000000
-27.000000,  9.000000
-26.000000,  9.000000
-26.000000,  9.000000
-26.000000,  8.000000
-26.000000,  8.000000
-27.000000,  8.000000
-27.000000,  8.000000
-27.000000,  8.000000
-28.000000,  8.000000
-28.000000,  8.000000
-28.000000,  8.000000
-28.000000,  8.000000
-28.000000,  9.000000
-28.000000,  9.000000
-29.000000,  9.000000
-29.000000,  9.000000
-29.000000,  8.000000
-29.000000,  8.000000
-30.000000,  8.000000
-30.000000,  8.000000
-30.000000,  8.000000
-31.000000,  8.000000
-31.000000,  8.000000
-31.000000,  9.000000
-31.000000,  9.000000
-30.000000,  9.000000
-30.000000,  9.000000
-30.000000, 10.000000
-30.000000, 10.000000
-31.000000, 10.000000
-31.000000, 10.000000
-31.000000, 11.000000
-31.000000, 11.000000
-30.000000, 11.000000
-30.000000, 11.000000
-30.000000, 11.000000
-29.000000, 11.000000
-29.000000, 11.000000
-29.000000, 10.000000
-29.000000, 10.000000
-28.000000, 10.000000
-28.000000, 10.000000
-28.000000, 11.000000
-28.000000, 11.000000
-28.000000, 11.000000
-28.000000, 12.000000
-28.000000, 12.000000
-28.000000, 12.000000
-28.000000, 13.000000
-28.000000, 13.000000
-29.000000, 13.000000
-29.000000, 13.000000
-29.000000, 12.000000
-29.000000, 12.000000
-30.000000, 12.000000
-30.000000, 12.000000
-30.000000, 12.000000
-31.000000, 12.000000
-31.000000, 12.000000
-31.000000, 13.000000
-31.000000, 13.000000
-30.000000, 13.000000
-30.000000, 13.000000
-30.000000, 14.000000
-30.000000, 14.000000
-31.000000, 14.000000
-31.000000, 14.000000
-31.000000, 15.000000
-31.000000, 15.000000
-30.000000, 15.000000
-30.000000, 15.000000
-30.000000, 15.000000
-29.000000, 15.000000
-29.000000, 15.000000
-29.000000, 14.000000
-29.000000, 14.000000
-28.000000, 14.000000
-28.000000, 14.000000
-28.000000, 15.000000
-28.000000, 15.000000
-28.000000, 15.000000
-28.000000, 15.000000
-27.000000, 15.000000
-27.000000, 15.000000
-27.000000, 15.000000
-26.000000, 15.000000
-26.000000, 15.000000
-26.000000, 14.000000
-26.000000, 14.000000
-27.000000, 14.000000
-27.000000, 14.000000
-27.000000, 13.000000
-27.000000, 13.000000
-27.000000, 13.000000
-27.000000, 12.000000
-27.000000, 12.000000
-26.000000, 12.000000
-26.000000, 12.000000
-26.000000, 13.000000
-26.000000, 13.000000
-25.000000, 13.000000
-25.000000, 13.000000
-25.000000, 12.000000
-25.000000, 12.000000
-24.000000, 12.000000
-24.000000, 12.000000
-24.000000, 13.000000
-24.000000, 13.000000
-24.000000, 13.000000
-24.000000, 14.000000
-24.000000, 14.000000
-25.000000, 14.000000
-25.000000, 14.000000
-25.000000, 15.000000
-25.000000, 15.000000
-24.000000, 15.000000
-24.000000, 15.000000
-24.000000, 15.000000
-24.000000, 15.000000
-24.000000, 15.000000
-23.000000, 15.000000
-23.000000, 15.000000
-23.000000, 15.000000
-23.000000, 15.000000
-23.000000, 14.000000
-23.000000, 14.000000
-22.000000, 14.000000
-22.000000, 14.000000
-22.000000, 15.000000
-22.000000, 15.000000
-21.000000, 15.000000
-21.000000, 15.000000
-21.000000, 15.000000
-20.000000, 15.000000
-20.000000, 15.000000
-20.000000, 14.000000
-20.000000, 14.000000
-21.000000, 14.000000
-21.000000, 14.000000
-21.000000, 13.000000
-21.000000, 13.000000
-20.000000, 13.000000
-20.000000, 13.000000
-20.000000, 12.000000
-20.000000, 12.000000
-21.000000, 12.000000
-21.000000, 12.000000
-21.000000, 12.000000
-22.000000, 12.000000
-22.000000, 12.000000
-22.000000, 13.000000
-22.000000, 13.000000
-23.000000, 13.000000
-23.000000, 13.000000
-23.000000, 12.000000
-23.000000, 12.000000
-23.000000, 12.000000
-23.000000, 11.000000
-23.000000, 11.000000
-23.000000, 11.000000
-23.000000, 11.000000
-22.000000, 11.000000
-22.000000, 11.000000
-22.000000, 10.000000
-22.000000, 10.000000
-23.000000, 10.000000
-23.000000, 10.000000
-23.000000,  9.000000
-23.000000,  9.000000
-23.000000,  9.000000
-23.000000,  8.000000
-23.000000,  8.000000
-22.000000,  8.000000
-22.000000,  8.000000
-22.000000,  9.000000
-22.000000,  9.000000
-21.000000,  9.000000
-21.000000,  9.000000
-21.000000,  8.000000
-21.000000,  8.000000
-20.000000,  8.000000
-20.000000,  8.000000
-20.000000,  9.000000
-20.000000,  9.000000
-20.000000,  9.000000
-20.000000, 10.000000
-20.000000, 10.000000
-21.000000, 10.000000
-21.000000, 10.000000
-21.000000, 11.000000
-21.000000, 11.000000
-20.000000, 11.000000
-20.000000, 11.000000
-20.000000, 11.000000
-19.000000, 11.000000
-19.000000, 11.000000
-19.000000, 11.000000
-18.000000, 11.000000
-18.000000, 11.000000
-18.000000, 10.000000
-18.000000, 10.000000
-19.000000, 10.000000
-19.000000, 10.000000
-19.000000,  9.000000
-19.000000,  9.000000
-19.000000,  9.000000
-19.000000,  8.000000
-19.000000,  8.000000
-18.000000,  8.000000
-18.000000,  8.000000
-18.000000,  9.000000
-18.000000,  9.000000
-17.000000,  9.000000
-17.000000,  9.000000
-17.000000,  8.000000
-17.000000,  8.000000
-16.000000,  8.000000
-16.000000,  8.000000
-16.000000,  9.000000
-16.000000,  9.000000
-16.000000,  9.000000
-16.000000, 10.000000
-16.000000, 10.000000
-17.000000, 10.000000
-17.000000, 10.000000
-17.000000, 11.000000
-17.000000, 11.000000
-16.000000, 11.000000
-16.000000, 11.000000
-16.000000, 11.000000
-16.000000, 11.000000
-16.000000, 12.000000
-16.000000, 12.000000
-16.000000, 12.000000
-16.000000, 13.000000
-16.000000, 13.000000
-17.000000, 13.000000
-17.000000, 13.000000
-17.000000, 12.000000
-17.000000, 12.000000
-18.000000, 12.000000
-18.000000, 12.000000
-18.000000, 12.000000
-19.000000, 12.000000
-19.000000, 12.000000
-19.000000, 13.000000
-19.000000, 13.000000
-18.000000, 13.000000
-18.000000, 13.000000
-18.000000, 14.000000
-18.000000, 14.000000
-19.000000, 14.000000
-19.000000, 14.000000
-19.000000, 15.000000
-19.000000, 15.000000
-18.000000, 15.000000
-18.000000, 15.000000
-18.000000, 15.000000
-17.000000, 15.000000
-17.000000, 15.000000
-17.000000, 14.000000
-17.000000, 14.000000
-16.000000, 14.000000
-16.000000, 14.000000
-16.000000, 15.000000
-16.000000, 15.000000
-16.000000, 15.000000
-16.000000, 15.000000
-16.000000, 15.000000
-16.000000, 16.000000
-16.000000, 16.000000
-16.000000, 16.000000
-16.000000, 16.000000
-16.000000, 16.000000
-16.000000, 17.000000
-16.000000, 17.000000
-17.000000, 17.000000
-17.000000, 17.000000
-17.000000, 16.000000
-17.000000, 16.000000
-18.000000, 16.000000
-18.000000, 16.000000
-18.000000, 16.000000
-19.000000, 16.000000
-19.000000, 16.000000
-19.000000, 17.000000
-19.000000, 17.000000
-18.000000, 17.000000
-18.000000, 17.000000
-18.000000, 18.000000
-18.000000, 18.000000
-19.000000, 18.000000
-19.000000, 18.000000
-19.000000, 19.000000
-19.000000, 19.000000
-18.000000, 19.000000
-18.000000, 19.000000
-18.000000, 19.000000
-17.000000, 19.000000
-17.000000, 19.000000
-17.000000, 18.000000
-17.000000, 18.000000
-16.000000, 18.000000
-16.000000, 18.000000
-16.000000, 19.000000
-16.000000, 19.000000
-16.000000, 19.000000
-16.000000, 20.000000
-16.000000, 20.000000
-16.000000, 20.000000
-16.000000, 20.000000
-17.000000, 20.000000
-17.000000, 20.000000
-17.000000, 21.000000
-17.000000, 21.000000
-16.000000, 21.000000
-16.000000, 21.000000
-16.000000, 22.000000
-16.000000, 22.000000
-16.000000, 22.000000
-16.000000, 23.000000
-16.000000, 23.000000
-17.000000, 23.000000
-17.000000, 23.000000
-17.000000, 22.000000
-17.000000, 22.000000
-18.000000, 22.000000
-18.000000, 22.000000
-18.000000, 23.000000
-18.000000, 23.000000
-19.000000, 23.000000
-19.000000, 23.000000
-19.000000, 22.000000
-19.000000, 22.000000
-19.000000, 22.000000
-19.000000, 21.000000
-19.000000, 21.000000
-18.000000, 21.000000
-18.000000, 21.000000
-18.000000, 20.000000
-18.000000, 20.000000
-19.000000, 20.000000
-19.000000, 20.000000
-19.000000, 20.000000
-20.000000, 20.000000
-20.000000, 20.000000
-20.000000, 20.000000
-21.000000, 20.000000
-21.000000, 20.000000
-21.000000, 21.000000
-21.000000, 21.000000
-20.000000, 21.000000
-20.000000, 21.000000
-20.000000, 22.000000
-20.000000, 22.000000
-20.000000, 22.000000
-20.000000, 23.000000
-20.000000, 23.000000
-21.000000, 23.000000
-21.000000, 23.000000
-21.000000, 22.000000
-21.000000, 22.000000
-22.000000, 22.000000
-22.000000, 22.000000
-22.000000, 23.000000
-22.000000, 23.000000
-23.000000, 23.000000
-23.000000, 23.000000
-23.000000, 22.000000
-23.000000, 22.000000
-23.000000, 22.000000
-23.000000, 21.000000
-23.000000, 21.000000
-22.000000, 21.000000
-22.000000, 21.000000
-22.000000, 20.000000
-22.000000, 20.000000
-23.000000, 20.000000
-23.000000, 20.000000
-23.000000, 20.000000
-23.000000, 20.000000
-23.000000, 19.000000
-23.000000, 19.000000
-23.000000, 19.000000
-23.000000, 18.000000
-23.000000, 18.000000
-22.000000, 18.000000
-22.000000, 18.000000
-22.000000, 19.000000
-22.000000, 19.000000
-21.000000, 19.000000
-21.000000, 19.000000
-21.000000, 19.000000
-20.000000, 19.000000
-20.000000, 19.000000
-20.000000, 18.000000
-20.000000, 18.000000
-21.000000, 18.000000
-21.000000, 18.000000
-21.000000, 17.000000
-21.000000, 17.000000
-20.000000, 17.000000
-20.000000, 17.000000
-20.000000, 16.000000
-20.000000, 16.000000
-21.000000, 16.000000
-21.000000, 16.000000
-21.000000, 16.000000
-22.000000, 16.000000
-22.000000, 16.000000
-22.000000, 17.000000
-22.000000, 17.000000
-23.000000, 17.000000
-23.000000, 17.000000
-23.000000, 16.000000
-23.000000, 16.000000
-23.000000, 16.000000
-23.000000, 16.000000
-24.000000, 16.000000
-24.000000, 16.000000
-24.000000, 16.000000
-24.000000, 16.000000
-24.000000, 16.000000
-25.000000, 16.000000
-25.000000, 16.000000
-25.000000, 17.000000
-25.000000, 17.000000
-24.000000, 17.000000
-24.000000, 17.000000
-24.000000, 18.000000
-24.000000, 18.000000
-24.000000, 18.000000
-24.000000, 19.000000
-24.000000, 19.000000
-25.000000, 19.000000
-25.000000, 19.000000
-25.000000, 18.000000
-25.000000, 18.000000
-26.000000, 18.000000
-26.000000, 18.000000
-26.000000, 19.000000
-26.000000, 19.000000
-27.000000, 19.000000
-27.000000, 19.000000
-27.000000, 18.000000
-27.000000, 18.000000
-27.000000, 18.000000
-27.000000, 17.000000
-27.000000, 17.000000
-26.000000, 17.000000
-26.000000, 17.000000
-26.000000, 16.000000
-26.000000, 16.000000
-27.000000, 16.000000
-27.000000, 16.000000
-27.000000, 16.000000
-28.000000, 16.000000
-28.000000, 16.000000
-28.000000, 16.000000
-28.000000, 16.000000
-28.000000, 17.000000
-28.000000, 17.000000
-29.000000, 17.000000
-29.000000, 17.000000
-29.000000, 16.000000
-29.000000, 16.000000
-30.000000, 16.000000
-30.000000, 16.000000
-30.000000, 16.000000
-31.000000, 16.000000
-31.000000, 16.000000
-31.000000, 17.000000
-31.000000, 17.000000
-30.000000, 17.000000
-30.000000, 17.000000
-30.000000, 18.000000
-30.000000, 18.000000
-31.000000, 18.000000
-31.000000, 18.000000
-31.000000, 19.000000
-31.000000, 19.000000
-30.000000, 19.000000
-30.000000, 19.000000
-30.000000, 19.000000
-29.000000, 19.000000
-29.000000, 19.000000
-29.000000, 18.000000
-29.000000, 18.000000
-28.000000, 18.000000
-28.000000, 18.000000
-28.000000, 19.000000
-28.000000, 19.000000
-28.000000, 19.000000
-28.000000, 20.000000
-28.000000, 20.000000
-28.000000, 20.000000
-28.000000, 21.000000
-28.000000, 21.000000
-29.000000, 21.000000
-29.000000, 21.000000
-29.000000, 20.000000
-29.000000, 20.000000
-30.000000, 20.000000
-30.000000, 20.000000
-30.000000, 20.000000
-31.000000, 20.000000
-31.000000, 20.000000
-31.000000, 21.000000
-31.000000, 21.000000
-30.000000, 21.000000
-30.000000, 21.000000
-30.000000, 22.000000
-30.000000, 22.000000
-31.000000, 22.000000
-31.000000, 22.000000
-31.000000, 23.000000
-31.000000, 23.000000
-30.000000, 23.000000
-30.000000, 23.000000
-30.000000, 23.000000
-29.000000, 23.000000
-29.000000, 23.000000
-29.000000, 22.000000
-29.000000, 22.000000
-28.000000, 22.000000
-28.000000, 22.000000
-28.000000, 23.000000
-28.000000, 23.000000
-28.000000, 23.000000
-28.000000, 23.000000
-27.000000, 23.000000
-27.000000, 23.000000
-27.000000, 23.000000
-26.000000, 23.000000
-26.000000, 23.000000
-26.000000, 22.000000
-26.000000, 22.000000
-27.000000, 22.000000
-27.000000, 22.000000
-27.000000, 21.000000
-27.000000, 21.000000
-27.000000, 21.000000
-27.000000, 20.000000
-27.000000, 20.000000
-26.000000, 20.000000
-26.000000, 20.000000
-26.000000, 21.000000
-26.000000, 21.000000
-25.000000, 21.000000
-25.000000, 21.000000
-25.000000, 20.000000
-25.000000, 20.000000
-24.000000, 20.000000
-24.000000, 20.000000
-24.000000, 21.000000
-24.000000, 21.000000
-24.000000, 21.000000
-24.000000, 22.000000
-24.000000, 22.000000
-25.000000, 22.000000
-25.000000, 22.000000
-25.000000, 23.000000
-25.000000, 23.000000
-24.000000, 23.000000
-24.000000, 23.000000
-24.000000, 23.000000
-24.000000, 23.000000
-24.000000, 24.000000
-24.000000, 24.000000
-24.000000, 24.000000
-24.000000, 24.000000
-25.000000, 24.000000
-25.000000, 24.000000
-25.000000, 25.000000
-25.000000, 25.000000
-24.000000, 25.000000
-24.000000, 25.000000
-24.000000, 26.000000
-24.000000, 26.000000
-24.000000, 26.000000
-24.000000, 27.000000
-24.000000, 27.000000
-25.000000, 27.000000
-25.000000, 27.000000
-25.000000, 26.000000
-25.000000, 26.000000
-26.000000, 26.000000
-26.000000, 26.000000
-26.000000, 27.000000
-26.000000, 27.000000
-27.000000, 27.000000
-27.000000, 27.000000
-27.000000, 26.000000
-27.000000, 26.000000
-27.000000, 26.000000
-27.000000, 25.000000
-27.000000, 25.000000
-26.000000, 25.000000
-26.000000, 25.000000
-26.000000, 24.000000
-26.000000, 24.000000
-27.000000, 24.000000
-27.000000, 24.000000
-27.000000, 24.000000
-28.000000, 24.000000
-28.000000, 24.000000
-28.000000, 24.000000
-28.000000, 24.000000
-28.000000, 25.000000
-28.000000, 25.000000
-29.000000, 25.000000
-29.000000, 25.000000
-29.000000, 24.000000
-29.000000, 24.000000
-30.000000, 24.000000
-30.000000, 24.000000
-30.000000, 24.000000
-31.000000, 24.000000
-31.000000, 24.000000
-31.000000, 25.000000
-31.000000, 25.000000
-30.000000, 25.000000
-30.000000, 25.000000
-30.000000, 26.000000
-30.000000, 26.000000
-31.000000, 26.000000
-31.000000, 26.000000
-31.000000, 27.000000
-31.000000, 27.000000
-30.000000, 27.000000
-30.000000, 27.000000
-30.000000, 27.000000
-29.000000, 27.000000
-29.000000, 27.000000
-29.000000, 26.000000
-29.000000, 26.000000
-28.000000, 26.000000
-28.000000, 26.000000
-28.000000, 27.000000
-28.000000, 27.000000
-28.000000, 27.000000
-28.000000, 28.000000
-28.000000, 28.000000
-28.000000, 28.000000
-28.000000, 29.000000
-28.000000, 29.000000
-29.000000, 29.000000
-29.000000, 29.000000
-29.000000, 28.000000
-29.000000, 28.000000
-30.000000, 28.000000
-30.000000, 28.000000
-30.000000, 28.000000
-31.000000, 28.000000
-31.000000, 28.000000
-31.000000, 29.000000
-31.000000, 29.000000
-30.000000, 29.000000
-30.000000, 29.000000
-30.000000, 30.000000
-30.000000, 30.000000
-31.000000, 30.000000
-31.000000, 30.000000
-31.000000, 31.000000
-31.000000, 31.000000
-30.000000, 31.000000
-30.000000, 31.000000
-30.000000, 31.000000
-29.000000, 31.000000
-29.000000, 31.000000
-29.000000, 30.000000
-29.000000, 30.000000
-28.000000, 30.000000
-28.000000, 30.000000
-28.000000, 31.000000
-28.000000, 31.000000
-28.000000, 31.000000
-28.000000, 31.000000
-27.000000, 31.000000
-27.000000, 31.000000
-27.000000, 31.000000
-26.000000, 31.000000
-26.000000, 31.000000
-26.000000, 30.000000
-26.000000, 30.000000
-27.000000, 30.000000
-27.000000, 30.000000
-27.000000, 29.000000
-27.000000, 29.000000
-27.000000, 29.000000
-27.000000, 28.000000
-27.000000, 28.000000
-26.000000, 28.000000
-26.000000, 28.000000
-26.000000, 29.000000
-26.000000, 29.000000
-25.000000, 29.000000
-25.000000, 29.000000
-25.000000, 28.000000
-25.000000, 28.000000
-24.000000, 28.000000
-24.000000, 28.000000
-24.000000, 29.000000
-24.000000, 29.000000
-24.000000, 29.000000
-24.000000, 30.000000
-24.000000, 30.000000
-25.000000, 30.000000
-25.000000, 30.000000
-25.000000, 31.000000
-25.000000, 31.000000
-24.000000, 31.000000
-24.000000, 31.000000
-24.000000, 31.000000
-24.000000, 31.000000
-24.000000, 31.000000
-23.000000, 31.000000
-23.000000, 31.000000
-23.000000, 31.000000
-23.000000, 31.000000
-23.000000, 30.000000
-23.000000, 30.000000
-22.000000, 30.000000
-22.000000, 30.000000
-22.000000, 31.000000
-22.000000, 31.000000
-21.000000, 31.000000
-21.000000, 31.000000
-21.000000, 31.000000
-20.000000, 31.000000
-20.000000, 31.000000
-20.000000, 30.000000
-20.000000, 30.000000
-21.000000, 30.000000
-21.000000, 30.000000
-21.000000, 29.000000
-21.000000, 29.000000
-20.000000, 29.000000
-20.000000, 29.000000
-20.000000, 28.000000
-20.000000, 28.000000
-21.000000, 28.000000
-21.000000, 28.000000
-21.000000, 28.000000
-22.000000, 28.000000
-22.000000, 28.000000
-22.000000, 29.000000
-22.000000, 29.000000
-23.000000, 29.000000
-23.000000, 29.000000
-23.000000, 28.000000
-23.000000, 28.000000
-23.000000, 28.000000
-23.000000, 27.000000
-23.000000, 27.000000
-23.000000, 27.000000
-23.000000, 27.000000
-22.000000, 27.000000
-22.000000, 27.000000
-22.000000, 26.000000
-22.000000, 26.000000
-23.000000, 26.000000
-23.000000, 26.000000
-23.000000, 25.000000
-23.000000, 25.000000
-23.000000, 25.000000
-23.000000, 24.000000
-23.000000, 24.000000
-22.000000, 24.000000
-22.000000, 24.000000
-22.000000, 25.000000
-22.000000, 25.000000
-21.000000, 25.000000
-21.000000, 25.000000
-21.000000, 24.000000
-21.000000, 24.000000
-20.000000, 24.000000
-20.000000, 24.000000
-20.000000, 25.000000
-20.000000, 25.000000
-20.000000, 25.000000
-20.000000, 26.000000
-20.000000, 26.000000
-21.000000, 26.000000
-21.000000, 26.000000
-21.000000, 27.000000
-21.000000, 27.000000
-20.000000, 27.000000
-20.000000, 27.000000
-20.000000, 27.000000
-19.000000, 27.000000
-19.000000, 27.000000
-19.000000, 27.000000
-18.000000, 27.000000
-18.000000, 27.000000
-18.000000, 26.000000
-18.000000, 26.000000
-19.000000, 26.000000
-19.000000, 26.000000
-19.000000, 25.000000
-19.000000, 25.000000
-19.000000, 25.000000
-19.000000, 24.000000
-19.000000, 24.000000
-18.000000, 24.000000
-18.000000, 24.000000
-18.000000, 25.000000
-18.000000, 25.000000
-17.000000, 25.000000
-17.000000, 25.000000
-17.000000, 24.000000
-17.000000, 24.000000
-16.000000, 24.000000
-16.000000, 24.000000
-16.000000, 25.000000
-16.000000, 25.000000
-16.000000, 25.000000
-16.000000, 26.000000
-16.000000, 26.000000
-17.000000, 26.000000
-17.000000, 26.000000
-17.000000, 27.000000
-17.000000, 27.000000
-16.000000, 27.000000
-16.000000, 27.000000
-16.000000, 27.000000
-16.000000, 27.000000
-16.000000, 28.000000
-16.000000, 28.000000
-16.000000, 28.000000
-16.000000, 29.000000
-16.000000, 29.000000
-17.000000, 29.000000
-17.000000, 29.000000
-17.000000, 28.000000
-17.000000, 28.000000
-18.000000, 28.000000
-18.000000, 28.000000
-18.000000, 28.000000
-19.000000, 28.000000
-19.000000, 28.000000
-19.000000, 29.000000
-19.000000, 29.000000
-18.000000, 29.000000
-18.000000, 29.000000
-18.000000, 30.000000
-18.000000, 30.000000
-19.000000, 30.000000
-19.000000, 30.000000
-19.000000, 31.000000
-19.000000, 31.000000
-18.000000, 31.000000
-18.000000, 31.000000
-18.000000, 31.000000
-17.000000, 31.000000
-17.000000, 31.000000
-17.000000, 30.000000
-17.000000, 30.000000
-16.000000, 30.000000
-16.000000, 30.000000
-16.000000, 31.000000
-16.000000, 31.000000
-16.000000, 31.000000
-16.000000, 31.000000
-16.000000, 31.000000
-16.000000, 31.000000
-15.000000, 31.000000
-15.000000, 31.000000
-15.000000, 31.000000
-15.000000, 31.000000
-15.000000, 31.000000
-14.000000, 31.000000
-14.000000, 31.000000
-14.000000, 30.000000
-14.000000, 30.000000
-15.000000, 30.000000
-15.000000, 30.000000
-15.000000, 29.000000
-15.000000, 29.000000
-15.000000, 29.000000
-15.000000, 28.000000
-15.000000, 28.000000
-14.000000, 28.000000
-14.000000, 28.000000
-14.000000, 29.000000
-14.000000, 29.000000
-13.000000, 29.000000
-13.000000, 29.000000
-13.000000, 28.000000
-13.000000, 28.000000
-12.000000, 28.000000
-12.000000, 28.000000
-12.000000, 29.000000
-12.000000, 29.000000
-12.000000, 29.000000
-12.000000, 30.000000
-12.000000, 30.000000
-13.000000, 30.000000
-13.000000, 30.000000
-13.000000, 31.000000
-13.000000, 31.000000
-12.000000, 31.000000
-12.000000, 31.000000
-12.000000, 31.000000
-11.000000, 31.000000
-11.000000, 31.000000
-11.000000, 31.000000
-11.000000, 31.000000
-11.000000, 30.000000
-11.000000, 30.000000
-10.000000, 30.000000
-10.000000, 30.000000
-10.000000, 31.000000
-10.000000, 31.000000
 -9.000000, 31.000000
 -9.000000, 31.000000
 -9.000000, 31.000000
 -8.000000, 31.000000
 -8.000000, 31.000000
 -8.000000, 30.000000
 -8.000000, 30.000000
 -9.000000, 30.000000
 -9.000000, 30.000000
 -9.000000, 29.000000
 -9.000000, 29.000000
 -8.000000, 29.000000
 -8.000000, 29.000000
 -8.000000, 28.000000
 -8.000000, 28.000000
 -9.000000, 28.000000
 -9.000000, 28.000000
 -9.000000, 28.000000
-10.000000, 28.000000
-10.000000, 28.000000
-10.000000, 29.000000
-10.000000, 29.000000
-11.000000, 29.000000
-11.000000, 29.000000
-11.000000, 28.000000
-11.000000, 28.000000
-11.000000, 28.000000
-11.000000, 27.000000
-11.000000, 27.000000
-11.000000, 27.000000
-11.000000, 26.000000
-11.000000, 26.000000
-10.000000, 26.000000
-10.000000, 26.000000
-10.000000, 27.000000
-10.000000, 27.000000
 -9.000000, 27.000000
 -9.000000, 27.000000
 -9.000000, 27.000000
 -8.000000, 27.000000
 -8.000000, 27.000000
 -8.000000, 26.000000
 -8.000000, 26.000000
 -9.000000, 26.000000
 -9.000000, 26.000000
 -9.000000, 25.000000
 -9.000000, 25.000000
 -8.000000, 25.000000
 -8.000000, 25.000000
 -8.000000, 24.000000
 -8.000000, 24.000000
 -9.000000, 24.000000
 -9.000000, 24.000000
 -9.000000, 24.000000
-10.000000, 24.000000
-10.000000, 24.000000
-10.000000, 25.000000
-10.000000, 25.000000
-11.000000, 25.000000
-11.000000, 25.000000
-11.000000, 24.000000
-11.000000, 24.000000
-11.000000, 24.000000
-11.000000, 24.000000
-12.000000, 24.000000
-12.000000, 24.000000
-12.000000, 24.000000
-13.000000, 24.000000
-13.000000, 24.000000
-13.000000, 25.000000
-13.000000, 25.000000
-12.000000, 25.000000
-12.000000, 25.000000
-12.000000, 26.000000
-12.000000, 26.000000
-12.000000, 26.000000
-12.000000, 27.000000
-12.000000, 27.000000
-13.000000, 27.000000
-13.000000, 27.000000
-13.000000, 26.000000
-13.000000, 26.000000
-14.000000, 26.000000
-14.000000, 26.000000
-14.000000, 27.000000
-14.000000, 27.000000
-15.000000, 27.000000
-15.000000, 27.000000
-15.000000, 26.000000
-15.000000, 26.000000
-15.000000, 26.000000
-15.000000, 25.000000
-15.000000, 25.000000
-14.000000, 25.000000
-14.000000, 25.000000
-14.000000, 24.000000
-14.000000, 24.000000
-15.000000, 24.000000
-15.000000, 24.000000
-15.000000, 24.000000
-15.000000, 24.000000
-15.000000, 23.000000
-15.000000, 23.000000
-15.000000, 23.000000
-15.000000, 23.000000
-15.000000, 23.000000
-15.000000, 22.000000
-15.000000, 22.000000
-14.000000, 22.000000
-14.000000, 22.000000
-14.000000, 23.000000
-14.000000, 23.000000
-13.000000, 23.000000
-13.000000, 23.000000
-13.000000, 23.000000
-12.000000, 23.000000
-12.000000, 23.000000
-12.000000, 22.000000
-12.000000, 22.000000
-13.000000, 22.000000
-13.000000, 22.000000
-13.000000, 21.000000
-13.000000, 21.000000
-12.000000, 21.000000
-12.000000, 21.000000
-12.000000, 20.000000
-12.000000, 20.000000
-13.000000, 20.000000
-13.000000, 20.000000
-13.000000, 20.000000
-14.000000, 20.000000
-14.000000, 20.000000
-14.000000, 21.000000
-14.000000, 21.000000
-15.000000, 21.000000
-15.000000, 21.000000
-15.000000, 20.000000
-15.000000, 20.000000
-15.000000, 20.000000
-15.000000, 19.000000
-15.000000, 19.000000
-15.000000, 19.000000
-15.000000, 19.000000
-14.000000, 19.000000
-14.000000, 19.000000
-14.000000, 18.000000
-14.000000, 18.000000
-15.000000, 18.000000
-15.000000, 18.000000
-15.000000, 17.000000
-15.000000, 17.000000
-15.000000, 17.000000
-15.000000, 16.000000
-15.000000, 16.000000
-14.000000, 16.000000
-14.000000, 16.000000
-14.000000, 17.000000
-14.000000, 17.000000
-13.000000, 17.000000
-13.000000, 17.000000
-13.000000, 16.000000
-13.000000, 16.000000
-12.000000, 16.000000
-12.000000, 16.000000
-12.000000, 17.000000
-12.000000, 17.000000
-12.000000, 17.000000
-12.000000, 18.000000
-12.000000, 18.000000
-13.000000, 18.000000
-13.000000, 18.000000
-13.000000, 19.000000
-13.000000, 19.000000
-12.000000, 19.000000
-12.000000, 19.000000
-12.000000, 19.000000
-11.000000, 19.000000
-11.000000, 19.000000
-11.000000, 19.000000
-10.000000, 19.000000
-10.000000, 19.000000
-10.000000, 18.000000
-10.000000, 18.000000
-11.000000, 18.000000
-11.000000, 18.000000
-11.000000, 17.000000
-11.000000, 17.000000
-11.000000, 17.000000
-11.000000, 16.000000
-11.000000, 16.000000
-10.000000, 16.000000
-10.000000, 16.000000
-10.000000, 17.000000
-10.000000, 17.000000
 -9.000000, 17.000000
 -9.000000, 17.000000
 -9.000000, 16.000000
 -9.000000, 16.000000
 -8.000000, 16.000000
 -8.000000, 16.000000
 -8.000000, 17.000000
 -8.000000, 17.000000
 -8.000000, 17.000000
 -8.000000, 18.000000
 -8.000000, 18.000000
 -9.000000, 18.000000
 -9.000000, 18.000000
 -9.000000, 19.000000
 -9.000000, 19.000000
 -8.000000, 19.000000
 -8.000000, 19.000000
 -8.000000, 19.000000
 -8.000000, 19.000000
 -8.000000, 20.000000
 -8.000000, 20.000000
 -8.000000, 20.000000
 -8.000000, 21.000000
 -8.000000, 21.000000
 -9.000000, 21.000000
 -9.000000, 21.000000
 -9.000000, 20.000000
 -9.000000, 20.000000
-10.000000, 20.000000
-10.000000, 20.000000
-10.000000, 20.000000
-11.000000, 20.000000
-11.000000, 20.000000
-11.000000, 21.000000
-11.000000, 21.000000
-10.000000, 21.000000
-10.000000, 21.000000
-10.000000, 22.000000
-10.000000, 22.000000
-11.000000, 22.000000
-11.000000, 22.000000
-11.000000, 23.000000
-11.000000, 23.000000
-10.000000, 23.000000
-10.000000, 23.000000
-10.000000, 23.000000
 -9.000000, 23.000000
 -9.000000, 23.000000
 -9.000000, 22.000000
 -9.000000, 22.000000
 -8.000000, 22.000000
 -8.000000, 22.000000
 -8.000000, 23.000000
 -8.000000, 23.000000
 -8.000000, 23.000000
 -8.000000, 23.000000
 -7.000000, 23.000000
 -7.000000, 23.000000
 -7.000000, 23.000000
 -7.000000, 23.000000
 -7.000000, 22.000000
 -7.000000, 22.000000
 -6.000000, 22.000000
 -6.000000, 22.000000
 -6.000000, 23.000000
 -6.000000, 23.000000
 -5.000000, 23.000000
 -5.000000, 23.000000
 -5.000000, 23.000000
 -4.000000, 23.000000
 -4.000000, 23.000000
 -4.000000, 22.000000
 -4.000000, 22.000000
 -5.000000, 22.000000
 -5.000000, 22.000000
 -5.000000, 21.000000
 -5.000000, 21.000000
 -4.000000, 21.000000
 -4.000000, 21.000000
 -4.000000, 20.000000
 -4.000000, 20.000000
 -5.000000, 20.000000
 -5.000000, 20.000000
 -5.000000, 20.000000
 -6.000000, 20.000000
 -6.000000, 20.000000
 -6.000000, 21.000000
 -6.000000, 21.000000
 -7.000000, 21.000000
 -7.000000, 21.000000
 -7.000000, 20.000000
 -7.000000, 20.000000
 -7.000000, 20.000000
 -7.000000, 19.000000
 -7.000000, 19.000000
 -7.000000, 19.000000
 -7.000000, 19.000000
 -6.000000, 19.000000
 -6.000000, 19.000000
 -6.000000, 18.000000
 -6.000000, 18.000000
 -7.000000, 18.000000
 -7.000000, 18.000000
 -7.000000, 17.000000
 -7.000000, 17.000000
 -7.000000, 17.000000
 -7.000000, 16.000000
 -7.000000, 16.000000
 -6.000000, 16.000000
 -6.000000, 16.000000
 -6.000000, 17.000000
 -6.000000, 17.000000
 -5.000000, 17.000000
 -5.000000, 17.000000
 -5.000000, 16.000000
 -5.000000, 16.000000
 -4.000000, 16.000000
 -4.000000, 16.000000
 -4.000000, 17.000000
 -4.000000, 17.000000
 -4.000000, 17.000000
 -4.000000, 18.000000
 -4.000000, 18.000000
 -5.000000, 18.000000
 -5.000000, 18.000000
 -5.000000, 19.000000
 -5.000000, 19.000000
 -4.000000, 19.000000
 -4.000000, 19.000000
 -4.000000, 19.000000
 -3.000000, 19.000000
 -3.000000, 19.000000
 -3.000000, 19.000000
 -2.000000, 19.000000
 -2.000000, 19.000000
 -2.000000, 18.000000
 -2.000000, 18.000000
 -3.000000, 18.000000
 -3.000000, 18.000000
 -3.000000, 17.000000
 -3.000000, 17.000000
 -3.000000, 17.000000
 -3.000000, 16.000000
 -3.000000, 16.000000
 -2.000000, 16.000000
 -2.000000, 16.000000
 -2.000000, 17.000000
 -2.000000, 17.000000
 -1.000000, 17.000000
 -1.000000, 17.000000
 -1.000000, 16.000000
 -1.000000, 16.000000
  0.000000, 16.000000
  0.000000, 16.000000
 -0.000000, 17.000000
 -0.000000, 17.000000
 -0.000000, 17.000000
 -0.000000, 18.000000
 -0.000000, 18.000000
 -1.000000, 18.000000
 -1.000000, 18.000000
 -1.000000, 19.000000
 -1.000000, 19.000000
 -0.000000, 19.000000
 -0.000000, 19.000000
 -0.000000, 19.000000
 -0.000000, 19.000000
 -0.000000, 20.000000
 -0.000000, 20.000000
 -0.000000, 20.000000
 -0.000000, 21.000000
 -0.000000, 21.000000
 -1.000000, 21.000000
 -1.000000, 21.000000
 -1.000000, 20.000000
 -1.000000, 20.000000
 -2.000000, 20.000000
 -2.000000, 20.000000
 -2.000000, 20.000000
 -3.000000, 20.000000
 -3.000000, 20.000000
 -3.000000, 21.000000
 -3.000000, 21.000000
 -2.000000, 21.000000
 -2.000000, 21.000000
 -2.000000, 22.000000
 -2.000000, 22.000000
 -3.000000, 22.000000
 -3.000000, 22.000000
 -3.000000, 23.000000
 -3.000000, 23.000000
 -2.000000, 23.000000
 -2.000000, 23.000000
 -2.000000, 23.000000
 -1.000000, 23.000000
 -1.000000, 23.000000
 -1.000000, 22.000000
 -1.000000, 22.000000
 -0.000000, 22.000000
 -0.000000, 22.000000
 -0.000000, 23.000000
 -0.000000, 23.000000
 -0.000000, 23.000000
 -0.000000, 23.000000
 -0.000000, 23.000000
 -0.000000, 24.000000
 -0.000000, 24.000000
 -0.000000, 24.000000
 -0.000000, 24.000000
 -1.000000, 24.000000
 -1.000000, 24.000000
 -1.000000, 25.000000
 -1.000000, 25.000000
 -0.000000, 25.000000
 -0.000000, 25.000000
 -0.000000, 26.000000
 -0.000000, 26.000000
 -0.000000, 26.000000
 -0.000000, 27.000000
 -0.000000, 27.000000
 -1.000000, 27.000000
 -1.000000, 27.000000
 -1.000000, 26.000000
 -1.000000, 26.000000
 -2.000000, 26.000000
 -2.000000, 26.000000
 -2.000000, 27.000000
 -2.000000, 27.000000
 -3.000000, 27.000000
 -3.000000, 27.000000
 -3.000000, 26.000000
 -3.000000, 26.000000
 -3.000000, 26.000000
 -3.000000, 25.000000
 -3.000000, 25.000000
 -2.000000, 25.000000
 -2.000000, 25.000000
 -2.000000, 24.000000
 -2.000000, 24.000000
 -3.000000, 24.000000
 -3.000000, 24.000000
 -3.000000, 24.000000
 -4.000000, 24.000000
 -4.000000, 24.000000
 -4.000000, 24.000000
 -4.000000, 24.000000
 -4.000000, 25.000000
 -4.000000, 25.000000
 -5.000000, 25.000000
 -5.000000, 25.000000
 -5.000000, 24.000000
 -5.000000, 24.000000
 -6.000000, 24.000000
 -6.000000, 24.000000
 -6.000000, 24.000000
 -7.000000, 24.000000
 -7.000000, 24.000000
 -7.000000, 25.000000
 -7.000000, 25.000000
 -6.000000, 25.000000
 -6.000000, 25.000000
 -6.000000, 26.000000
 -6.000000, 26.000000
 -7.000000, 26.000000
 -7.000000, 26.000000
 -7.000000, 27.000000
 -7.000000, 27.000000
 -6.000000, 27.000000
 -6.000000, 27.000000
 -6.000000, 27.000000
 -5.000000, 27.000000
 -5.000000, 27.000000
 -5.000000, 26.000000
 -5.000000, 26.000000
 -4.000000, 26.000000
 -4.000000, 26.000000
 -4.000000, 27.000000
 -4.000000, 27.000000
 -4.000000, 27.000000
 -4.000000, 28.000000
 -4.000000, 28.000000
 -4.000000, 28.000000
 -4.000000, 29.000000
 -4.000000, 29.000000
 -5.000000, 29.000000
 -5.000000, 29.000000
 -5.000000, 28.000000
 -5.000000, 28.000000
 -6.000000, 28.000000
 -6.000000, 28.000000
 -6.000000, 28.000000
 -7.000000, 28.000000
 -7.000000, 28.000000
 -7.000000, 29.000000
 -7.000000, 29.000000
 -6.000000, 29.000000
 -6.000000, 29.000000
 -6.000000, 30.000000
 -6.000000, 30.000000
 -7.000000, 30.000000
 -7.000000, 30.000000
 -7.000000, 31.000000
 -7.000000, 31.000000
 -6.000000, 31.000000
 -6.000000, 31.000000
 -6.000000, 31.000000
 -5.000000, 31.000000
 -5.000000, 31.000000
 -5.000000, 30.000000
 -5.000000, 30.000000
 -4.000000, 30.000000
 -4.000000, 30.000000
 -4.000000, 31.000000
 -4.000000, 31.000000
 -4.000000, 31.000000
 -4.000000, 31.000000
 -3.000000, 31.000000
 -3.000000, 31.000000
 -3.000000, 31.000000
 -2.000000, 31.000000
 -2.000000, 31.000000
 -2.000000, 30.000000
 -2.000000, 30.000000
 -3.000000, 30.000000
 -3.000000, 30.000000
 -3.000000, 29.000000
 -3.000000, 29.000000
 -3.000000, 29.000000
 -3.000000, 28.000000
 -3.000000, 28.000000
 -2.000000, 28.000000
 -2.000000, 28.000000
 -2.000000, 29.000000
 -2.000000, 29.000000
 -1.000000, 29.000000
 -1.000000, 29.000000
 -1.000000, 28.000000
 -1.000000, 28.000000
 -0.000000, 28.000000
 -0.000000, 28.000000
 -0.000001, 29.000000
 -0.000001, 29.000000
 -0.000001, 29.000000
 -0.000001, 30.000000
 -0.000001, 30.000000
 -1.000001, 30.000000
 -1.000001, 30.000000
 -1.000001, 31.000000
 -1.000001, 31.000000
 -0.000001, 31.000000
 -0.000001, 31.000000
 -0.000001, 31.000000
 -0.000001, 31.000000
 -0.000001, 31.000000
 -0.000001, 31.000000
 "
/>
</svg>
